<svg width="640" height="313" viewBox="0 0 640 313" fill="none" xmlns="http://www.w3.org/2000/svg">
<g filter="url(#filter0_i_1204_536)">
<g clip-path="url(#clip0_1204_536)">
<path d="M170 21C170 15.4771 174.477 11 180 11H640V283H170V21Z" fill="#170826"/>
<mask id="path-3-inside-1_1204_536" fill="white">
<path d="M170 12H202V39C202 41.7614 199.761 44 197 44H170V12Z"/>
</mask>
<path d="M170 12V11.5H169.5V12H170ZM202 12H202.5V11.5H202V12ZM170 44H169.5V44.5H170V44ZM170 12.5H202V11.5H170V12.5ZM201.5 12V39H202.5V12H201.5ZM197 43.5H170V44.5H197V43.5ZM170.5 44V12H169.5V44H170.5ZM201.5 39C201.5 41.4853 199.485 43.5 197 43.5V44.5C200.038 44.5 202.5 42.0376 202.5 39H201.5Z" fill="#331946" fill-opacity="0.27" mask="url(#path-3-inside-1_1204_536)"/>
<mask id="path-5-inside-2_1204_536" fill="white">
<path d="M202 12H234V44H207C204.239 44 202 41.7614 202 39V12Z"/>
</mask>
<path d="M202 12V11.5H201.5V12H202ZM234 12H234.5V11.5H234V12ZM234 44V44.5H234.5V44H234ZM202 12.5H234V11.5H202V12.5ZM233.5 12V44H234.5V12H233.5ZM234 43.5H207V44.5H234V43.5ZM202.5 39V12H201.5V39H202.5ZM207 43.5C204.515 43.5 202.5 41.4853 202.5 39H201.5C201.5 42.0376 203.962 44.5 207 44.5V43.5Z" fill="#331946" fill-opacity="0.27" mask="url(#path-5-inside-2_1204_536)"/>
<mask id="path-7-inside-3_1204_536" fill="white">
<path d="M234 12H266V44H234V12Z"/>
</mask>
<path d="M234 12V11.5H233.5V12H234ZM266 12H266.5V11.5H266V12ZM266 44V44.5H266.5V44H266ZM234 44H233.5V44.5H234V44ZM234 12.5H266V11.5H234V12.5ZM265.5 12V44H266.5V12H265.5ZM266 43.5H234V44.5H266V43.5ZM234.5 44V12H233.5V44H234.5Z" fill="#331946" fill-opacity="0.27" mask="url(#path-7-inside-3_1204_536)"/>
<mask id="path-9-inside-4_1204_536" fill="white">
<path d="M266 12H298V44H266V12Z"/>
</mask>
<path d="M266 12V11.5H265.5V12H266ZM298 12H298.5V11.5H298V12ZM298 44V44.5H298.5V44H298ZM266 44H265.5V44.5H266V44ZM266 12.5H298V11.5H266V12.5ZM297.5 12V44H298.5V12H297.5ZM298 43.5H266V44.5H298V43.5ZM266.5 44V12H265.5V44H266.5Z" fill="#331946" fill-opacity="0.27" mask="url(#path-9-inside-4_1204_536)"/>
<mask id="path-11-inside-5_1204_536" fill="white">
<path d="M298 12H330V44H298V12Z"/>
</mask>
<path d="M298 12V11.5H297.5V12H298ZM330 12H330.5V11.5H330V12ZM330 44V44.5H330.5V44H330ZM298 44H297.5V44.5H298V44ZM298 12.5H330V11.5H298V12.5ZM329.5 12V44H330.5V12H329.5ZM330 43.5H298V44.5H330V43.5ZM298.5 44V12H297.5V44H298.5Z" fill="#331946" fill-opacity="0.27" mask="url(#path-11-inside-5_1204_536)"/>
<mask id="path-13-inside-6_1204_536" fill="white">
<path d="M330 12H362V44H330V12Z"/>
</mask>
<path d="M330 12V11.5H329.5V12H330ZM362 12H362.5V11.5H362V12ZM362 44V44.5H362.5V44H362ZM330 44H329.5V44.5H330V44ZM330 12.5H362V11.5H330V12.5ZM361.5 12V44H362.5V12H361.5ZM362 43.5H330V44.5H362V43.5ZM330.5 44V12H329.5V44H330.5Z" fill="#331946" fill-opacity="0.27" mask="url(#path-13-inside-6_1204_536)"/>
<mask id="path-15-inside-7_1204_536" fill="white">
<path d="M362 12H394V44H362V12Z"/>
</mask>
<path d="M362 12V11.5H361.5V12H362ZM394 12H394.5V11.5H394V12ZM394 44V44.5H394.5V44H394ZM362 44H361.5V44.5H362V44ZM362 12.5H394V11.5H362V12.5ZM393.5 12V44H394.5V12H393.5ZM394 43.5H362V44.5H394V43.5ZM362.5 44V12H361.5V44H362.5Z" fill="#331946" fill-opacity="0.27" mask="url(#path-15-inside-7_1204_536)"/>
<mask id="path-17-inside-8_1204_536" fill="white">
<path d="M394 12H426V44H394V12Z"/>
</mask>
<path d="M394 12V11.5H393.5V12H394ZM426 12H426.5V11.5H426V12ZM426 44V44.5H426.5V44H426ZM394 44H393.5V44.5H394V44ZM394 12.5H426V11.5H394V12.5ZM425.5 12V44H426.5V12H425.5ZM426 43.5H394V44.5H426V43.5ZM394.5 44V12H393.5V44H394.5Z" fill="#331946" fill-opacity="0.27" mask="url(#path-17-inside-8_1204_536)"/>
<mask id="path-19-inside-9_1204_536" fill="white">
<path d="M426 12H458V44H426V12Z"/>
</mask>
<path d="M426 12V11.5H425.5V12H426ZM458 12H458.5V11.5H458V12ZM458 44V44.5H458.5V44H458ZM426 44H425.5V44.5H426V44ZM426 12.5H458V11.5H426V12.5ZM457.5 12V44H458.5V12H457.5ZM458 43.5H426V44.5H458V43.5ZM426.5 44V12H425.5V44H426.5Z" fill="#331946" fill-opacity="0.27" mask="url(#path-19-inside-9_1204_536)"/>
<mask id="path-21-inside-10_1204_536" fill="white">
<path d="M458 12H490V44H458V12Z"/>
</mask>
<path d="M458 12V11.5H457.5V12H458ZM490 12H490.5V11.5H490V12ZM490 44V44.5H490.5V44H490ZM458 44H457.5V44.5H458V44ZM458 12.5H490V11.5H458V12.5ZM489.5 12V44H490.5V12H489.5ZM490 43.5H458V44.5H490V43.5ZM458.5 44V12H457.5V44H458.5Z" fill="#331946" fill-opacity="0.27" mask="url(#path-21-inside-10_1204_536)"/>
<mask id="path-23-inside-11_1204_536" fill="white">
<path d="M490 12H522V44H490V12Z"/>
</mask>
<path d="M490 12V11.5H489.5V12H490ZM522 12H522.5V11.5H522V12ZM522 44V44.5H522.5V44H522ZM490 44H489.5V44.5H490V44ZM490 12.5H522V11.5H490V12.5ZM521.5 12V44H522.5V12H521.5ZM522 43.5H490V44.5H522V43.5ZM490.5 44V12H489.5V44H490.5Z" fill="#331946" fill-opacity="0.27" mask="url(#path-23-inside-11_1204_536)"/>
<mask id="path-25-inside-12_1204_536" fill="white">
<path d="M522 12H554V44H522V12Z"/>
</mask>
<path d="M522 12V11.5H521.5V12H522ZM554 12H554.5V11.5H554V12ZM554 44V44.5H554.5V44H554ZM522 44H521.5V44.5H522V44ZM522 12.5H554V11.5H522V12.5ZM553.5 12V44H554.5V12H553.5ZM554 43.5H522V44.5H554V43.5ZM522.5 44V12H521.5V44H522.5Z" fill="#331946" fill-opacity="0.27" mask="url(#path-25-inside-12_1204_536)"/>
<mask id="path-27-inside-13_1204_536" fill="white">
<path d="M554 12H586V44H554V12Z"/>
</mask>
<path d="M554 12V11.5H553.5V12H554ZM586 12H586.5V11.5H586V12ZM586 44V44.5H586.5V44H586ZM554 44H553.5V44.5H554V44ZM554 12.5H586V11.5H554V12.5ZM585.5 12V44H586.5V12H585.5ZM586 43.5H554V44.5H586V43.5ZM554.5 44V12H553.5V44H554.5Z" fill="#331946" fill-opacity="0.27" mask="url(#path-27-inside-13_1204_536)"/>
<mask id="path-29-inside-14_1204_536" fill="white">
<path d="M586 12H618V44H586V12Z"/>
</mask>
<path d="M586 12V11.5H585.5V12H586ZM618 12H618.5V11.5H618V12ZM618 44V44.5H618.5V44H618ZM586 44H585.5V44.5H586V44ZM586 12.5H618V11.5H586V12.5ZM617.5 12V44H618.5V12H617.5ZM618 43.5H586V44.5H618V43.5ZM586.5 44V12H585.5V44H586.5Z" fill="#331946" fill-opacity="0.27" mask="url(#path-29-inside-14_1204_536)"/>
<mask id="path-31-inside-15_1204_536" fill="white">
<path d="M618 12H650V44H618V12Z"/>
</mask>
<path d="M618 12V11.5H617.5V12H618ZM650 12H651V11.5H650V12ZM650 44V44.5H651V44H650ZM618 44H617.5V44.5H618V44ZM618 12.5H650V11.5H618V12.5ZM649 12V44H651V12H649ZM650 43.5H618V44.5H650V43.5ZM618.5 44V12H617.5V44H618.5Z" fill="#331946" fill-opacity="0.27" mask="url(#path-31-inside-15_1204_536)"/>
<mask id="path-33-inside-16_1204_536" fill="white">
<path d="M170 44H197C199.761 44 202 46.2386 202 49V76H170V44Z"/>
</mask>
<path d="M170 44V43.5H169.5V44H170ZM202 76V76.5H202.5V76H202ZM170 76H169.5V76.5H170V76ZM170 44.5H197V43.5H170V44.5ZM201.5 49V76H202.5V49H201.5ZM202 75.5H170V76.5H202V75.5ZM170.5 76V44H169.5V76H170.5ZM197 44.5C199.485 44.5 201.5 46.5147 201.5 49H202.5C202.5 45.9624 200.038 43.5 197 43.5V44.5Z" fill="#331946" fill-opacity="0.27" mask="url(#path-33-inside-16_1204_536)"/>
<mask id="path-35-inside-17_1204_536" fill="white">
<path d="M202 49C202 46.2386 204.239 44 207 44H234V76H202V49Z"/>
</mask>
<path d="M234 44H234.5V43.5H234V44ZM234 76V76.5H234.5V76H234ZM202 76H201.5V76.5H202V76ZM207 44.5H234V43.5H207V44.5ZM233.5 44V76H234.5V44H233.5ZM234 75.5H202V76.5H234V75.5ZM202.5 76V49H201.5V76H202.5ZM207 43.5C203.962 43.5 201.5 45.9624 201.5 49H202.5C202.5 46.5147 204.515 44.5 207 44.5V43.5Z" fill="#331946" fill-opacity="0.27" mask="url(#path-35-inside-17_1204_536)"/>
<mask id="path-37-inside-18_1204_536" fill="white">
<path d="M234 44H266V76H234V44Z"/>
</mask>
<path d="M234 44V43.5H233.5V44H234ZM266 44H266.5V43.5H266V44ZM266 76V76.5H266.5V76H266ZM234 76H233.5V76.5H234V76ZM234 44.5H266V43.5H234V44.5ZM265.5 44V76H266.5V44H265.5ZM266 75.5H234V76.5H266V75.5ZM234.5 76V44H233.5V76H234.5Z" fill="#331946" fill-opacity="0.27" mask="url(#path-37-inside-18_1204_536)"/>
<mask id="path-39-inside-19_1204_536" fill="white">
<path d="M266 44H298V76H266V44Z"/>
</mask>
<path d="M266 44V43.5H265.5V44H266ZM298 44H298.5V43.5H298V44ZM298 76V76.5H298.5V76H298ZM266 76H265.5V76.5H266V76ZM266 44.5H298V43.5H266V44.5ZM297.5 44V76H298.5V44H297.5ZM298 75.5H266V76.5H298V75.5ZM266.5 76V44H265.5V76H266.5Z" fill="#331946" fill-opacity="0.27" mask="url(#path-39-inside-19_1204_536)"/>
<mask id="path-41-inside-20_1204_536" fill="white">
<path d="M298 44H330V76H298V44Z"/>
</mask>
<path d="M298 44V43.5H297.5V44H298ZM330 44H330.5V43.5H330V44ZM330 76V76.5H330.5V76H330ZM298 76H297.5V76.5H298V76ZM298 44.5H330V43.5H298V44.5ZM329.5 44V76H330.5V44H329.5ZM330 75.5H298V76.5H330V75.5ZM298.5 76V44H297.5V76H298.5Z" fill="#331946" fill-opacity="0.27" mask="url(#path-41-inside-20_1204_536)"/>
<mask id="path-43-inside-21_1204_536" fill="white">
<path d="M330 44H362V76H330V44Z"/>
</mask>
<path d="M330 44V43.5H329.5V44H330ZM362 44H362.5V43.5H362V44ZM362 76V76.5H362.5V76H362ZM330 76H329.5V76.5H330V76ZM330 44.5H362V43.5H330V44.5ZM361.5 44V76H362.5V44H361.5ZM362 75.5H330V76.5H362V75.5ZM330.5 76V44H329.5V76H330.5Z" fill="#331946" fill-opacity="0.27" mask="url(#path-43-inside-21_1204_536)"/>
<mask id="path-45-inside-22_1204_536" fill="white">
<path d="M362 44H394V76H362V44Z"/>
</mask>
<path d="M362 44V43.5H361.5V44H362ZM394 44H394.5V43.5H394V44ZM394 76V76.5H394.5V76H394ZM362 76H361.5V76.5H362V76ZM362 44.5H394V43.5H362V44.5ZM393.5 44V76H394.5V44H393.5ZM394 75.5H362V76.5H394V75.5ZM362.5 76V44H361.5V76H362.5Z" fill="#331946" fill-opacity="0.27" mask="url(#path-45-inside-22_1204_536)"/>
<mask id="path-47-inside-23_1204_536" fill="white">
<path d="M394 44H426V76H394V44Z"/>
</mask>
<path d="M394 44V43.5H393.5V44H394ZM426 44H426.5V43.5H426V44ZM426 76V76.5H426.5V76H426ZM394 76H393.5V76.5H394V76ZM394 44.5H426V43.5H394V44.5ZM425.5 44V76H426.5V44H425.5ZM426 75.5H394V76.5H426V75.5ZM394.5 76V44H393.5V76H394.5Z" fill="#331946" fill-opacity="0.27" mask="url(#path-47-inside-23_1204_536)"/>
<mask id="path-49-inside-24_1204_536" fill="white">
<path d="M426 44H458V76H426V44Z"/>
</mask>
<path d="M426 44V43.5H425.5V44H426ZM458 44H458.5V43.5H458V44ZM458 76V76.5H458.5V76H458ZM426 76H425.5V76.5H426V76ZM426 44.5H458V43.5H426V44.5ZM457.5 44V76H458.5V44H457.5ZM458 75.5H426V76.5H458V75.5ZM426.5 76V44H425.5V76H426.5Z" fill="#331946" fill-opacity="0.27" mask="url(#path-49-inside-24_1204_536)"/>
<mask id="path-51-inside-25_1204_536" fill="white">
<path d="M458 44H490V71C490 73.7614 487.761 76 485 76H458V44Z"/>
</mask>
<path d="M458 44V43.5H457.5V44H458ZM490 44H490.5V43.5H490V44ZM458 76H457.5V76.5H458V76ZM458 44.5H490V43.5H458V44.5ZM489.5 44V71H490.5V44H489.5ZM485 75.5H458V76.5H485V75.5ZM458.5 76V44H457.5V76H458.5ZM489.5 71C489.5 73.4853 487.485 75.5 485 75.5V76.5C488.038 76.5 490.5 74.0376 490.5 71H489.5Z" fill="#331946" fill-opacity="0.27" mask="url(#path-51-inside-25_1204_536)"/>
<mask id="path-53-inside-26_1204_536" fill="white">
<path d="M490 44H522V76H495C492.239 76 490 73.7614 490 71V44Z"/>
</mask>
<path d="M490 44V43.5H489.5V44H490ZM522 44H522.5V43.5H522V44ZM522 76V76.5H522.5V76H522ZM490 44.5H522V43.5H490V44.5ZM521.5 44V76H522.5V44H521.5ZM522 75.5H495V76.5H522V75.5ZM490.5 71V44H489.5V71H490.5ZM495 75.5C492.515 75.5 490.5 73.4853 490.5 71H489.5C489.5 74.0376 491.962 76.5 495 76.5V75.5Z" fill="#331946" fill-opacity="0.27" mask="url(#path-53-inside-26_1204_536)"/>
<mask id="path-55-inside-27_1204_536" fill="white">
<path d="M522 44H554V76H522V44Z"/>
</mask>
<path d="M522 44V43.5H521.5V44H522ZM554 44H554.5V43.5H554V44ZM554 76V76.5H554.5V76H554ZM522 76H521.5V76.5H522V76ZM522 44.5H554V43.5H522V44.5ZM553.5 44V76H554.5V44H553.5ZM554 75.5H522V76.5H554V75.5ZM522.5 76V44H521.5V76H522.5Z" fill="#331946" fill-opacity="0.27" mask="url(#path-55-inside-27_1204_536)"/>
<mask id="path-57-inside-28_1204_536" fill="white">
<path d="M554 44H586V76H554V44Z"/>
</mask>
<path d="M554 44V43.5H553.5V44H554ZM586 44H586.5V43.5H586V44ZM586 76V76.5H586.5V76H586ZM554 76H553.5V76.5H554V76ZM554 44.5H586V43.5H554V44.5ZM585.5 44V76H586.5V44H585.5ZM586 75.5H554V76.5H586V75.5ZM554.5 76V44H553.5V76H554.5Z" fill="#331946" fill-opacity="0.27" mask="url(#path-57-inside-28_1204_536)"/>
<mask id="path-59-inside-29_1204_536" fill="white">
<path d="M586 44H618V76H586V44Z"/>
</mask>
<path d="M586 44V43.5H585.5V44H586ZM618 44H618.5V43.5H618V44ZM618 76V76.5H618.5V76H618ZM586 76H585.5V76.5H586V76ZM586 44.5H618V43.5H586V44.5ZM617.5 44V76H618.5V44H617.5ZM618 75.5H586V76.5H618V75.5ZM586.5 76V44H585.5V76H586.5Z" fill="#331946" fill-opacity="0.27" mask="url(#path-59-inside-29_1204_536)"/>
<mask id="path-61-inside-30_1204_536" fill="white">
<path d="M618 44H650V76H618V44Z"/>
</mask>
<path d="M618 44V43.5H617.5V44H618ZM650 44H651V43.5H650V44ZM650 76V76.5H651V76H650ZM618 76H617.5V76.5H618V76ZM618 44.5H650V43.5H618V44.5ZM649 44V76H651V44H649ZM650 75.5H618V76.5H650V75.5ZM618.5 76V44H617.5V76H618.5Z" fill="#331946" fill-opacity="0.27" mask="url(#path-61-inside-30_1204_536)"/>
<mask id="path-63-inside-31_1204_536" fill="white">
<path d="M170 76H202V108H170V76Z"/>
</mask>
<path d="M170 76V75.5H169.5V76H170ZM202 76H202.5V75.5H202V76ZM202 108V108.5H202.5V108H202ZM170 108H169.5V108.5H170V108ZM170 76.5H202V75.5H170V76.5ZM201.5 76V108H202.5V76H201.5ZM202 107.5H170V108.5H202V107.5ZM170.5 108V76H169.5V108H170.5Z" fill="#331946" fill-opacity="0.27" mask="url(#path-63-inside-31_1204_536)"/>
<mask id="path-65-inside-32_1204_536" fill="white">
<path d="M202 76H234V108H202V76Z"/>
</mask>
<path d="M202 76V75.5H201.5V76H202ZM234 76H234.5V75.5H234V76ZM234 108V108.5H234.5V108H234ZM202 108H201.5V108.5H202V108ZM202 76.5H234V75.5H202V76.5ZM233.5 76V108H234.5V76H233.5ZM234 107.5H202V108.5H234V107.5ZM202.5 108V76H201.5V108H202.5Z" fill="#331946" fill-opacity="0.27" mask="url(#path-65-inside-32_1204_536)"/>
<mask id="path-67-inside-33_1204_536" fill="white">
<path d="M234 76H266V103C266 105.761 263.761 108 261 108H234V76Z"/>
</mask>
<path d="M234 76V75.5H233.5V76H234ZM266 76H266.5V75.5H266V76ZM234 108H233.5V108.5H234V108ZM234 76.5H266V75.5H234V76.5ZM265.5 76V103H266.5V76H265.5ZM261 107.5H234V108.5H261V107.5ZM234.5 108V76H233.5V108H234.5ZM265.5 103C265.5 105.485 263.485 107.5 261 107.5V108.5C264.038 108.5 266.5 106.038 266.5 103H265.5Z" fill="#331946" fill-opacity="0.27" mask="url(#path-67-inside-33_1204_536)"/>
<mask id="path-69-inside-34_1204_536" fill="white">
<path d="M266 76H298V108H271C268.239 108 266 105.761 266 103V76Z"/>
</mask>
<path d="M266 76V75.5H265.5V76H266ZM298 76H298.5V75.5H298V76ZM298 108V108.5H298.5V108H298ZM266 76.5H298V75.5H266V76.5ZM297.5 76V108H298.5V76H297.5ZM298 107.5H271V108.5H298V107.5ZM266.5 103V76H265.5V103H266.5ZM271 107.5C268.515 107.5 266.5 105.485 266.5 103H265.5C265.5 106.038 267.962 108.5 271 108.5V107.5Z" fill="#331946" fill-opacity="0.27" mask="url(#path-69-inside-34_1204_536)"/>
<mask id="path-71-inside-35_1204_536" fill="white">
<path d="M298 76H330V108H298V76Z"/>
</mask>
<path d="M298 76V75.5H297.5V76H298ZM330 76H330.5V75.5H330V76ZM330 108V108.5H330.5V108H330ZM298 108H297.5V108.5H298V108ZM298 76.5H330V75.5H298V76.5ZM329.5 76V108H330.5V76H329.5ZM330 107.5H298V108.5H330V107.5ZM298.5 108V76H297.5V108H298.5Z" fill="#331946" fill-opacity="0.27" mask="url(#path-71-inside-35_1204_536)"/>
<mask id="path-73-inside-36_1204_536" fill="white">
<path d="M330 76H362V108H330V76Z"/>
</mask>
<path d="M330 76V75.5H329.5V76H330ZM362 76H362.5V75.5H362V76ZM362 108V108.5H362.5V108H362ZM330 108H329.5V108.5H330V108ZM330 76.5H362V75.5H330V76.5ZM361.5 76V108H362.5V76H361.5ZM362 107.5H330V108.5H362V107.5ZM330.5 108V76H329.5V108H330.5Z" fill="#331946" fill-opacity="0.27" mask="url(#path-73-inside-36_1204_536)"/>
<mask id="path-75-inside-37_1204_536" fill="white">
<path d="M362 76H394V108H362V76Z"/>
</mask>
<path d="M362 76V75.5H361.5V76H362ZM394 76H394.5V75.5H394V76ZM394 108V108.5H394.5V108H394ZM362 108H361.5V108.5H362V108ZM362 76.5H394V75.5H362V76.5ZM393.5 76V108H394.5V76H393.5ZM394 107.5H362V108.5H394V107.5ZM362.5 108V76H361.5V108H362.5Z" fill="#331946" fill-opacity="0.27" mask="url(#path-75-inside-37_1204_536)"/>
<mask id="path-77-inside-38_1204_536" fill="white">
<path d="M394 76H426V108H394V76Z"/>
</mask>
<path d="M394 76V75.5H393.5V76H394ZM426 76H426.5V75.5H426V76ZM426 108V108.5H426.5V108H426ZM394 108H393.5V108.5H394V108ZM394 76.5H426V75.5H394V76.5ZM425.5 76V108H426.5V76H425.5ZM426 107.5H394V108.5H426V107.5ZM394.5 108V76H393.5V108H394.5Z" fill="#331946" fill-opacity="0.27" mask="url(#path-77-inside-38_1204_536)"/>
<mask id="path-79-inside-39_1204_536" fill="white">
<path d="M426 76H458V108H426V76Z"/>
</mask>
<path d="M426 76V75.5H425.5V76H426ZM458 76H458.5V75.5H458V76ZM458 108V108.5H458.5V108H458ZM426 108H425.5V108.5H426V108ZM426 76.5H458V75.5H426V76.5ZM457.5 76V108H458.5V76H457.5ZM458 107.5H426V108.5H458V107.5ZM426.5 108V76H425.5V108H426.5Z" fill="#331946" fill-opacity="0.27" mask="url(#path-79-inside-39_1204_536)"/>
<mask id="path-81-inside-40_1204_536" fill="white">
<path d="M458 76H485C487.761 76 490 78.2386 490 81V108H458V76Z"/>
</mask>
<path d="M458 76V75.5H457.5V76H458ZM490 108V108.5H490.5V108H490ZM458 108H457.5V108.5H458V108ZM458 76.5H485V75.5H458V76.5ZM489.5 81V108H490.5V81H489.5ZM490 107.5H458V108.5H490V107.5ZM458.5 108V76H457.5V108H458.5ZM485 76.5C487.485 76.5 489.5 78.5147 489.5 81H490.5C490.5 77.9624 488.038 75.5 485 75.5V76.5Z" fill="#331946" fill-opacity="0.27" mask="url(#path-81-inside-40_1204_536)"/>
<mask id="path-83-inside-41_1204_536" fill="white">
<path d="M490 81C490 78.2386 492.239 76 495 76H522V108H490V81Z"/>
</mask>
<path d="M522 76H522.5V75.5H522V76ZM522 108V108.5H522.5V108H522ZM490 108H489.5V108.5H490V108ZM495 76.5H522V75.5H495V76.5ZM521.5 76V108H522.5V76H521.5ZM522 107.5H490V108.5H522V107.5ZM490.5 108V81H489.5V108H490.5ZM495 75.5C491.962 75.5 489.5 77.9624 489.5 81H490.5C490.5 78.5147 492.515 76.5 495 76.5V75.5Z" fill="#331946" fill-opacity="0.27" mask="url(#path-83-inside-41_1204_536)"/>
<mask id="path-85-inside-42_1204_536" fill="white">
<path d="M522 76H554V108H522V76Z"/>
</mask>
<path d="M522 76V75.5H521.5V76H522ZM554 76H554.5V75.5H554V76ZM554 108V108.5H554.5V108H554ZM522 108H521.5V108.5H522V108ZM522 76.5H554V75.5H522V76.5ZM553.5 76V108H554.5V76H553.5ZM554 107.5H522V108.5H554V107.5ZM522.5 108V76H521.5V108H522.5Z" fill="#331946" fill-opacity="0.27" mask="url(#path-85-inside-42_1204_536)"/>
<mask id="path-87-inside-43_1204_536" fill="white">
<path d="M554 76H586V103C586 105.761 583.761 108 581 108H554V76Z"/>
</mask>
<path d="M554 76V75.5H553.5V76H554ZM586 76H586.5V75.5H586V76ZM554 108H553.5V108.5H554V108ZM554 76.5H586V75.5H554V76.5ZM585.5 76V103H586.5V76H585.5ZM581 107.5H554V108.5H581V107.5ZM554.5 108V76H553.5V108H554.5ZM585.5 103C585.5 105.485 583.485 107.5 581 107.5V108.5C584.038 108.5 586.5 106.038 586.5 103H585.5Z" fill="#331946" fill-opacity="0.27" mask="url(#path-87-inside-43_1204_536)"/>
<mask id="path-89-inside-44_1204_536" fill="white">
<path d="M586 76H618V108H591C588.239 108 586 105.761 586 103V76Z"/>
</mask>
<path d="M586 76V75.5H585.5V76H586ZM618 76H618.5V75.5H618V76ZM618 108V108.5H618.5V108H618ZM586 76.5H618V75.5H586V76.5ZM617.5 76V108H618.5V76H617.5ZM618 107.5H591V108.5H618V107.5ZM586.5 103V76H585.5V103H586.5ZM591 107.5C588.515 107.5 586.5 105.485 586.5 103H585.5C585.5 106.038 587.962 108.5 591 108.5V107.5Z" fill="#331946" fill-opacity="0.27" mask="url(#path-89-inside-44_1204_536)"/>
<mask id="path-91-inside-45_1204_536" fill="white">
<path d="M618 76H650V108H618V76Z"/>
</mask>
<path d="M618 76V75.5H617.5V76H618ZM650 76H651V75.5H650V76ZM650 108V108.5H651V108H650ZM618 108H617.5V108.5H618V108ZM618 76.5H650V75.5H618V76.5ZM649 76V108H651V76H649ZM650 107.5H618V108.5H650V107.5ZM618.5 108V76H617.5V108H618.5Z" fill="#331946" fill-opacity="0.27" mask="url(#path-91-inside-45_1204_536)"/>
<mask id="path-93-inside-46_1204_536" fill="white">
<path d="M170 108H202V140H170V108Z"/>
</mask>
<path d="M170 108V107.5H169.5V108H170ZM202 108H202.5V107.5H202V108ZM202 140V140.5H202.5V140H202ZM170 140H169.5V140.5H170V140ZM170 108.5H202V107.5H170V108.5ZM201.5 108V140H202.5V108H201.5ZM202 139.5H170V140.5H202V139.5ZM170.5 140V108H169.5V140H170.5Z" fill="#331946" fill-opacity="0.27" mask="url(#path-93-inside-46_1204_536)"/>
<mask id="path-95-inside-47_1204_536" fill="white">
<path d="M202 108H234V140H202V108Z"/>
</mask>
<path d="M202 108V107.5H201.5V108H202ZM234 108H234.5V107.5H234V108ZM234 140V140.5H234.5V140H234ZM202 140H201.5V140.5H202V140ZM202 108.5H234V107.5H202V108.5ZM233.5 108V140H234.5V108H233.5ZM234 139.5H202V140.5H234V139.5ZM202.5 140V108H201.5V140H202.5Z" fill="#331946" fill-opacity="0.27" mask="url(#path-95-inside-47_1204_536)"/>
<mask id="path-97-inside-48_1204_536" fill="white">
<path d="M234 108H261C263.761 108 266 110.239 266 113V140H234V108Z"/>
</mask>
<path d="M234 108V107.5H233.5V108H234ZM266 140V140.5H266.5V140H266ZM234 140H233.5V140.5H234V140ZM234 108.5H261V107.5H234V108.5ZM265.5 113V140H266.5V113H265.5ZM266 139.5H234V140.5H266V139.5ZM234.5 140V108H233.5V140H234.5ZM261 108.5C263.485 108.5 265.5 110.515 265.5 113H266.5C266.5 109.962 264.038 107.5 261 107.5V108.5Z" fill="#331946" fill-opacity="0.27" mask="url(#path-97-inside-48_1204_536)"/>
<mask id="path-99-inside-49_1204_536" fill="white">
<path d="M266 113C266 110.239 268.239 108 271 108H298V140H266V113Z"/>
</mask>
<path d="M298 108H298.5V107.5H298V108ZM298 140V140.5H298.5V140H298ZM266 140H265.5V140.5H266V140ZM271 108.5H298V107.5H271V108.5ZM297.5 108V140H298.5V108H297.5ZM298 139.5H266V140.5H298V139.5ZM266.5 140V113H265.5V140H266.5ZM271 107.5C267.962 107.5 265.5 109.962 265.5 113H266.5C266.5 110.515 268.515 108.5 271 108.5V107.5Z" fill="#331946" fill-opacity="0.27" mask="url(#path-99-inside-49_1204_536)"/>
<mask id="path-101-inside-50_1204_536" fill="white">
<path d="M298 108H330V140H298V108Z"/>
</mask>
<path d="M298 108V107.5H297.5V108H298ZM330 108H330.5V107.5H330V108ZM330 140V140.5H330.5V140H330ZM298 140H297.5V140.5H298V140ZM298 108.5H330V107.5H298V108.5ZM329.5 108V140H330.5V108H329.5ZM330 139.5H298V140.5H330V139.5ZM298.5 140V108H297.5V140H298.5Z" fill="#331946" fill-opacity="0.27" mask="url(#path-101-inside-50_1204_536)"/>
<mask id="path-103-inside-51_1204_536" fill="white">
<path d="M330 108H362V140H330V108Z"/>
</mask>
<path d="M330 108V107.5H329.5V108H330ZM362 108H362.5V107.5H362V108ZM362 140V140.5H362.5V140H362ZM330 140H329.5V140.5H330V140ZM330 108.5H362V107.5H330V108.5ZM361.5 108V140H362.5V108H361.5ZM362 139.5H330V140.5H362V139.5ZM330.5 140V108H329.5V140H330.5Z" fill="#331946" fill-opacity="0.27" mask="url(#path-103-inside-51_1204_536)"/>
<mask id="path-105-inside-52_1204_536" fill="white">
<path d="M362 108H394V140H362V108Z"/>
</mask>
<path d="M362 108V107.5H361.5V108H362ZM394 108H394.5V107.5H394V108ZM394 140V140.5H394.5V140H394ZM362 140H361.5V140.5H362V140ZM362 108.5H394V107.5H362V108.5ZM393.5 108V140H394.5V108H393.5ZM394 139.5H362V140.5H394V139.5ZM362.5 140V108H361.5V140H362.5Z" fill="#331946" fill-opacity="0.27" mask="url(#path-105-inside-52_1204_536)"/>
<mask id="path-107-inside-53_1204_536" fill="white">
<path d="M394 108H426V140H394V108Z"/>
</mask>
<path d="M394 108V107.5H393.5V108H394ZM426 108H426.5V107.5H426V108ZM426 140V140.5H426.5V140H426ZM394 140H393.5V140.5H394V140ZM394 108.5H426V107.5H394V108.5ZM425.5 108V140H426.5V108H425.5ZM426 139.5H394V140.5H426V139.5ZM394.5 140V108H393.5V140H394.5Z" fill="#331946" fill-opacity="0.27" mask="url(#path-107-inside-53_1204_536)"/>
<mask id="path-109-inside-54_1204_536" fill="white">
<path d="M426 108H458V140H426V108Z"/>
</mask>
<path d="M426 108V107.5H425.5V108H426ZM458 108H458.5V107.5H458V108ZM458 140V140.5H458.5V140H458ZM426 140H425.5V140.5H426V140ZM426 108.5H458V107.5H426V108.5ZM457.5 108V140H458.5V108H457.5ZM458 139.5H426V140.5H458V139.5ZM426.5 140V108H425.5V140H426.5Z" fill="#331946" fill-opacity="0.27" mask="url(#path-109-inside-54_1204_536)"/>
<mask id="path-111-inside-55_1204_536" fill="white">
<path d="M458 108H490V140H458V108Z"/>
</mask>
<path d="M458 108V107.5H457.5V108H458ZM490 108H490.5V107.5H490V108ZM490 140V140.5H490.5V140H490ZM458 140H457.5V140.5H458V140ZM458 108.5H490V107.5H458V108.5ZM489.5 108V140H490.5V108H489.5ZM490 139.5H458V140.5H490V139.5ZM458.5 140V108H457.5V140H458.5Z" fill="#331946" fill-opacity="0.27" mask="url(#path-111-inside-55_1204_536)"/>
<mask id="path-113-inside-56_1204_536" fill="white">
<path d="M490 108H522V140H490V108Z"/>
</mask>
<path d="M490 108V107.5H489.5V108H490ZM522 108H522.5V107.5H522V108ZM522 140V140.5H522.5V140H522ZM490 140H489.5V140.5H490V140ZM490 108.5H522V107.5H490V108.5ZM521.5 108V140H522.5V108H521.5ZM522 139.5H490V140.5H522V139.5ZM490.5 140V108H489.5V140H490.5Z" fill="#331946" fill-opacity="0.27" mask="url(#path-113-inside-56_1204_536)"/>
<mask id="path-115-inside-57_1204_536" fill="white">
<path d="M522 108H554V140H522V108Z"/>
</mask>
<path d="M522 108V107.5H521.5V108H522ZM554 108H554.5V107.5H554V108ZM554 140V140.5H554.5V140H554ZM522 140H521.5V140.5H522V140ZM522 108.5H554V107.5H522V108.5ZM553.5 108V140H554.5V108H553.5ZM554 139.5H522V140.5H554V139.5ZM522.5 140V108H521.5V140H522.5Z" fill="#331946" fill-opacity="0.27" mask="url(#path-115-inside-57_1204_536)"/>
<mask id="path-117-inside-58_1204_536" fill="white">
<path d="M554 108H581C583.761 108 586 110.239 586 113V140H554V108Z"/>
</mask>
<path d="M554 108V107.5H553.5V108H554ZM586 140V140.5H586.5V140H586ZM554 140H553.5V140.5H554V140ZM554 108.5H581V107.5H554V108.5ZM585.5 113V140H586.5V113H585.5ZM586 139.5H554V140.5H586V139.5ZM554.5 140V108H553.5V140H554.5ZM581 108.5C583.485 108.5 585.5 110.515 585.5 113H586.5C586.5 109.962 584.038 107.5 581 107.5V108.5Z" fill="#331946" fill-opacity="0.27" mask="url(#path-117-inside-58_1204_536)"/>
<mask id="path-119-inside-59_1204_536" fill="white">
<path d="M586 113C586 110.239 588.239 108 591 108H618V140H586V113Z"/>
</mask>
<path d="M618 108H618.5V107.5H618V108ZM618 140V140.5H618.5V140H618ZM586 140H585.5V140.5H586V140ZM591 108.5H618V107.5H591V108.5ZM617.5 108V140H618.5V108H617.5ZM618 139.5H586V140.5H618V139.5ZM586.5 140V113H585.5V140H586.5ZM591 107.5C587.962 107.5 585.5 109.962 585.5 113H586.5C586.5 110.515 588.515 108.5 591 108.5V107.5Z" fill="#331946" fill-opacity="0.27" mask="url(#path-119-inside-59_1204_536)"/>
<mask id="path-121-inside-60_1204_536" fill="white">
<path d="M618 108H650V140H618V108Z"/>
</mask>
<path d="M618 108V107.5H617.5V108H618ZM650 108H651V107.5H650V108ZM650 140V140.5H651V140H650ZM618 140H617.5V140.5H618V140ZM618 108.5H650V107.5H618V108.5ZM649 108V140H651V108H649ZM650 139.5H618V140.5H650V139.5ZM618.5 140V108H617.5V140H618.5Z" fill="#331946" fill-opacity="0.27" mask="url(#path-121-inside-60_1204_536)"/>
<circle cx="570" cy="124" r="12" fill="#9A59BA" fill-opacity="0.3"/>
<circle cx="570" cy="124" r="8" fill="#9A59BA" fill-opacity="0.4"/>
<circle cx="570" cy="124" r="4" fill="#9A59BA"/>
<mask id="path-126-inside-61_1204_536" fill="white">
<path d="M170 140H202V172H170V140Z"/>
</mask>
<path d="M170 140V139.5H169.5V140H170ZM202 140H202.5V139.5H202V140ZM202 172V172.5H202.5V172H202ZM170 172H169.5V172.5H170V172ZM170 140.5H202V139.5H170V140.5ZM201.5 140V172H202.5V140H201.5ZM202 171.5H170V172.5H202V171.5ZM170.5 172V140H169.5V172H170.5Z" fill="#331946" fill-opacity="0.27" mask="url(#path-126-inside-61_1204_536)"/>
<mask id="path-128-inside-62_1204_536" fill="white">
<path d="M202 140H234V172H202V140Z"/>
</mask>
<path d="M202 140V139.5H201.5V140H202ZM234 140H234.5V139.5H234V140ZM234 172V172.5H234.5V172H234ZM202 172H201.5V172.5H202V172ZM202 140.5H234V139.5H202V140.5ZM233.5 140V172H234.5V140H233.5ZM234 171.5H202V172.5H234V171.5ZM202.5 172V140H201.5V172H202.5Z" fill="#331946" fill-opacity="0.27" mask="url(#path-128-inside-62_1204_536)"/>
<mask id="path-130-inside-63_1204_536" fill="white">
<path d="M234 140H266V172H234V140Z"/>
</mask>
<path d="M234 140V139.5H233.5V140H234ZM266 140H266.5V139.5H266V140ZM266 172V172.5H266.5V172H266ZM234 172H233.5V172.5H234V172ZM234 140.5H266V139.5H234V140.5ZM265.5 140V172H266.5V140H265.5ZM266 171.5H234V172.5H266V171.5ZM234.5 172V140H233.5V172H234.5Z" fill="#331946" fill-opacity="0.27" mask="url(#path-130-inside-63_1204_536)"/>
<mask id="path-132-inside-64_1204_536" fill="white">
<path d="M266 140H298V172H266V140Z"/>
</mask>
<path d="M266 140V139.5H265.5V140H266ZM298 140H298.5V139.5H298V140ZM298 172V172.5H298.5V172H298ZM266 172H265.5V172.5H266V172ZM266 140.5H298V139.5H266V140.5ZM297.5 140V172H298.5V140H297.5ZM298 171.5H266V172.5H298V171.5ZM266.5 172V140H265.5V172H266.5Z" fill="#331946" fill-opacity="0.27" mask="url(#path-132-inside-64_1204_536)"/>
<mask id="path-134-inside-65_1204_536" fill="white">
<path d="M298 140H330V172H298V140Z"/>
</mask>
<path d="M298 140V139.5H297.5V140H298ZM330 140H330.5V139.5H330V140ZM330 172V172.5H330.5V172H330ZM298 172H297.5V172.5H298V172ZM298 140.5H330V139.5H298V140.5ZM329.5 140V172H330.5V140H329.5ZM330 171.5H298V172.5H330V171.5ZM298.5 172V140H297.5V172H298.5Z" fill="#331946" fill-opacity="0.27" mask="url(#path-134-inside-65_1204_536)"/>
<mask id="path-136-inside-66_1204_536" fill="white">
<path d="M330 140H362V172H330V140Z"/>
</mask>
<path d="M330 140V139.5H329.5V140H330ZM362 140H362.5V139.5H362V140ZM362 172V172.5H362.5V172H362ZM330 172H329.5V172.5H330V172ZM330 140.5H362V139.5H330V140.5ZM361.5 140V172H362.5V140H361.5ZM362 171.5H330V172.5H362V171.5ZM330.5 172V140H329.5V172H330.5Z" fill="#331946" fill-opacity="0.27" mask="url(#path-136-inside-66_1204_536)"/>
<mask id="path-138-inside-67_1204_536" fill="white">
<path d="M362 140H394V172H362V140Z"/>
</mask>
<path d="M362 140V139.5H361.5V140H362ZM394 140H394.5V139.5H394V140ZM394 172V172.5H394.5V172H394ZM362 172H361.5V172.5H362V172ZM362 140.5H394V139.5H362V140.5ZM393.5 140V172H394.5V140H393.5ZM394 171.5H362V172.5H394V171.5ZM362.5 172V140H361.5V172H362.5Z" fill="#331946" fill-opacity="0.27" mask="url(#path-138-inside-67_1204_536)"/>
<mask id="path-140-inside-68_1204_536" fill="white">
<path d="M394 140H426V172H394V140Z"/>
</mask>
<path d="M394 140V139.5H393.5V140H394ZM426 140H426.5V139.5H426V140ZM426 172V172.5H426.5V172H426ZM394 172H393.5V172.5H394V172ZM394 140.5H426V139.5H394V140.5ZM425.5 140V172H426.5V140H425.5ZM426 171.5H394V172.5H426V171.5ZM394.5 172V140H393.5V172H394.5Z" fill="#331946" fill-opacity="0.27" mask="url(#path-140-inside-68_1204_536)"/>
<mask id="path-142-inside-69_1204_536" fill="white">
<path d="M426 140H458V172H426V140Z"/>
</mask>
<path d="M426 140V139.5H425.5V140H426ZM458 140H458.5V139.5H458V140ZM458 172V172.5H458.5V172H458ZM426 172H425.5V172.5H426V172ZM426 140.5H458V139.5H426V140.5ZM457.5 140V172H458.5V140H457.5ZM458 171.5H426V172.5H458V171.5ZM426.5 172V140H425.5V172H426.5Z" fill="#331946" fill-opacity="0.27" mask="url(#path-142-inside-69_1204_536)"/>
<mask id="path-144-inside-70_1204_536" fill="white">
<path d="M458 140H490V172H458V140Z"/>
</mask>
<path d="M458 140V139.5H457.5V140H458ZM490 140H490.5V139.5H490V140ZM490 172V172.5H490.5V172H490ZM458 172H457.5V172.5H458V172ZM458 140.5H490V139.5H458V140.5ZM489.5 140V172H490.5V140H489.5ZM490 171.5H458V172.5H490V171.5ZM458.5 172V140H457.5V172H458.5Z" fill="#331946" fill-opacity="0.27" mask="url(#path-144-inside-70_1204_536)"/>
<mask id="path-146-inside-71_1204_536" fill="white">
<path d="M490 140H522V172H490V140Z"/>
</mask>
<path d="M490 140V139.5H489.5V140H490ZM522 140H522.5V139.5H522V140ZM522 172V172.5H522.5V172H522ZM490 172H489.5V172.5H490V172ZM490 140.5H522V139.5H490V140.5ZM521.5 140V172H522.5V140H521.5ZM522 171.5H490V172.5H522V171.5ZM490.5 172V140H489.5V172H490.5Z" fill="#331946" fill-opacity="0.27" mask="url(#path-146-inside-71_1204_536)"/>
<mask id="path-148-inside-72_1204_536" fill="white">
<path d="M522 140H554V172H522V140Z"/>
</mask>
<path d="M522 140V139.5H521.5V140H522ZM554 140H554.5V139.5H554V140ZM554 172V172.5H554.5V172H554ZM522 172H521.5V172.5H522V172ZM522 140.5H554V139.5H522V140.5ZM553.5 140V172H554.5V140H553.5ZM554 171.5H522V172.5H554V171.5ZM522.5 172V140H521.5V172H522.5Z" fill="#331946" fill-opacity="0.27" mask="url(#path-148-inside-72_1204_536)"/>
<mask id="path-150-inside-73_1204_536" fill="white">
<path d="M554 140H586V172H554V140Z"/>
</mask>
<path d="M554 140V139.5H553.5V140H554ZM586 140H586.5V139.5H586V140ZM586 172V172.5H586.5V172H586ZM554 172H553.5V172.5H554V172ZM554 140.5H586V139.5H554V140.5ZM585.5 140V172H586.5V140H585.5ZM586 171.5H554V172.5H586V171.5ZM554.5 172V140H553.5V172H554.5Z" fill="#331946" fill-opacity="0.27" mask="url(#path-150-inside-73_1204_536)"/>
<mask id="path-152-inside-74_1204_536" fill="white">
<path d="M586 140H618V172H586V140Z"/>
</mask>
<path d="M586 140V139.5H585.5V140H586ZM618 140H618.5V139.5H618V140ZM618 172V172.5H618.5V172H618ZM586 172H585.5V172.5H586V172ZM586 140.5H618V139.5H586V140.5ZM617.5 140V172H618.5V140H617.5ZM618 171.5H586V172.5H618V171.5ZM586.5 172V140H585.5V172H586.5Z" fill="#331946" fill-opacity="0.27" mask="url(#path-152-inside-74_1204_536)"/>
<mask id="path-154-inside-75_1204_536" fill="white">
<path d="M618 140H650V172H618V140Z"/>
</mask>
<path d="M618 140V139.5H617.5V140H618ZM650 140H651V139.5H650V140ZM650 172V172.5H651V172H650ZM618 172H617.5V172.5H618V172ZM618 140.5H650V139.5H618V140.5ZM649 140V172H651V140H649ZM650 171.5H618V172.5H650V171.5ZM618.5 172V140H617.5V172H618.5Z" fill="#331946" fill-opacity="0.27" mask="url(#path-154-inside-75_1204_536)"/>
<circle cx="186" cy="156" r="12" fill="#9A59BA" fill-opacity="0.3"/>
<circle cx="186" cy="156" r="8" fill="#9A59BA" fill-opacity="0.4"/>
<circle cx="186" cy="156" r="4" fill="#9A59BA"/>
<mask id="path-159-inside-76_1204_536" fill="white">
<path d="M170 172H202V204H170V172Z"/>
</mask>
<path d="M170 172V171.5H169.5V172H170ZM202 172H202.5V171.5H202V172ZM202 204V204.5H202.5V204H202ZM170 204H169.5V204.5H170V204ZM170 172.5H202V171.5H170V172.5ZM201.5 172V204H202.5V172H201.5ZM202 203.5H170V204.5H202V203.5ZM170.5 204V172H169.5V204H170.5Z" fill="#331946" fill-opacity="0.27" mask="url(#path-159-inside-76_1204_536)"/>
<mask id="path-161-inside-77_1204_536" fill="white">
<path d="M202 172H234V204H202V172Z"/>
</mask>
<path d="M202 172V171.5H201.5V172H202ZM234 172H234.5V171.5H234V172ZM234 204V204.5H234.5V204H234ZM202 204H201.5V204.5H202V204ZM202 172.5H234V171.5H202V172.5ZM233.5 172V204H234.5V172H233.5ZM234 203.5H202V204.5H234V203.5ZM202.5 204V172H201.5V204H202.5Z" fill="#331946" fill-opacity="0.27" mask="url(#path-161-inside-77_1204_536)"/>
<mask id="path-163-inside-78_1204_536" fill="white">
<path d="M234 172H266V204H234V172Z"/>
</mask>
<path d="M234 172V171.5H233.5V172H234ZM266 172H266.5V171.5H266V172ZM266 204V204.5H266.5V204H266ZM234 204H233.5V204.5H234V204ZM234 172.5H266V171.5H234V172.5ZM265.5 172V204H266.5V172H265.5ZM266 203.5H234V204.5H266V203.5ZM234.5 204V172H233.5V204H234.5Z" fill="#331946" fill-opacity="0.27" mask="url(#path-163-inside-78_1204_536)"/>
<mask id="path-165-inside-79_1204_536" fill="white">
<path d="M266 172H298V204H266V172Z"/>
</mask>
<path d="M266 172V171.5H265.5V172H266ZM298 172H298.5V171.5H298V172ZM298 204V204.5H298.5V204H298ZM266 204H265.5V204.5H266V204ZM266 172.5H298V171.5H266V172.5ZM297.5 172V204H298.5V172H297.5ZM298 203.5H266V204.5H298V203.5ZM266.5 204V172H265.5V204H266.5Z" fill="#331946" fill-opacity="0.27" mask="url(#path-165-inside-79_1204_536)"/>
<mask id="path-167-inside-80_1204_536" fill="white">
<path d="M298 172H330V204H298V172Z"/>
</mask>
<path d="M298 172V171.5H297.5V172H298ZM330 172H330.5V171.5H330V172ZM330 204V204.5H330.5V204H330ZM298 204H297.5V204.5H298V204ZM298 172.5H330V171.5H298V172.5ZM329.5 172V204H330.5V172H329.5ZM330 203.5H298V204.5H330V203.5ZM298.5 204V172H297.5V204H298.5Z" fill="#331946" fill-opacity="0.27" mask="url(#path-167-inside-80_1204_536)"/>
<mask id="path-169-inside-81_1204_536" fill="white">
<path d="M330 172H362V204H330V172Z"/>
</mask>
<path d="M330 172V171.5H329.5V172H330ZM362 172H362.5V171.5H362V172ZM362 204V204.5H362.5V204H362ZM330 204H329.5V204.5H330V204ZM330 172.5H362V171.5H330V172.5ZM361.5 172V204H362.5V172H361.5ZM362 203.5H330V204.5H362V203.5ZM330.5 204V172H329.5V204H330.5Z" fill="#331946" fill-opacity="0.27" mask="url(#path-169-inside-81_1204_536)"/>
<mask id="path-171-inside-82_1204_536" fill="white">
<path d="M362 172H394V204H362V172Z"/>
</mask>
<path d="M362 172V171.5H361.5V172H362ZM394 172H394.5V171.5H394V172ZM394 204V204.5H394.5V204H394ZM362 204H361.5V204.5H362V204ZM362 172.5H394V171.5H362V172.5ZM393.5 172V204H394.5V172H393.5ZM394 203.5H362V204.5H394V203.5ZM362.5 204V172H361.5V204H362.5Z" fill="#331946" fill-opacity="0.27" mask="url(#path-171-inside-82_1204_536)"/>
<mask id="path-173-inside-83_1204_536" fill="white">
<path d="M394 172H426V204H394V172Z"/>
</mask>
<path d="M394 172V171.5H393.5V172H394ZM426 172H426.5V171.5H426V172ZM426 204V204.5H426.5V204H426ZM394 204H393.5V204.5H394V204ZM394 172.5H426V171.5H394V172.5ZM425.5 172V204H426.5V172H425.5ZM426 203.5H394V204.5H426V203.5ZM394.5 204V172H393.5V204H394.5Z" fill="#331946" fill-opacity="0.27" mask="url(#path-173-inside-83_1204_536)"/>
<mask id="path-175-inside-84_1204_536" fill="white">
<path d="M426 172H458V204H426V172Z"/>
</mask>
<path d="M426 172V171.5H425.5V172H426ZM458 172H458.5V171.5H458V172ZM458 204V204.5H458.5V204H458ZM426 204H425.5V204.5H426V204ZM426 172.5H458V171.5H426V172.5ZM457.5 172V204H458.5V172H457.5ZM458 203.5H426V204.5H458V203.5ZM426.5 204V172H425.5V204H426.5Z" fill="#331946" fill-opacity="0.27" mask="url(#path-175-inside-84_1204_536)"/>
<mask id="path-177-inside-85_1204_536" fill="white">
<path d="M458 172H490V204H458V172Z"/>
</mask>
<path d="M458 172V171.5H457.5V172H458ZM490 172H490.5V171.5H490V172ZM490 204V204.5H490.5V204H490ZM458 204H457.5V204.5H458V204ZM458 172.5H490V171.5H458V172.5ZM489.5 172V204H490.5V172H489.5ZM490 203.5H458V204.5H490V203.5ZM458.5 204V172H457.5V204H458.5Z" fill="#331946" fill-opacity="0.27" mask="url(#path-177-inside-85_1204_536)"/>
<mask id="path-179-inside-86_1204_536" fill="white">
<path d="M490 172H522V204H490V172Z"/>
</mask>
<path d="M490 172V171.5H489.5V172H490ZM522 172H522.5V171.5H522V172ZM522 204V204.5H522.5V204H522ZM490 204H489.5V204.5H490V204ZM490 172.5H522V171.5H490V172.5ZM521.5 172V204H522.5V172H521.5ZM522 203.5H490V204.5H522V203.5ZM490.5 204V172H489.5V204H490.5Z" fill="#331946" fill-opacity="0.27" mask="url(#path-179-inside-86_1204_536)"/>
<mask id="path-181-inside-87_1204_536" fill="white">
<path d="M522 172H554V204H522V172Z"/>
</mask>
<path d="M522 172V171.5H521.5V172H522ZM554 172H554.5V171.5H554V172ZM554 204V204.5H554.5V204H554ZM522 204H521.5V204.5H522V204ZM522 172.5H554V171.5H522V172.5ZM553.5 172V204H554.5V172H553.5ZM554 203.5H522V204.5H554V203.5ZM522.5 204V172H521.5V204H522.5Z" fill="#331946" fill-opacity="0.27" mask="url(#path-181-inside-87_1204_536)"/>
<mask id="path-183-inside-88_1204_536" fill="white">
<path d="M554 172H586V204H554V172Z"/>
</mask>
<path d="M554 172V171.5H553.5V172H554ZM586 172H586.5V171.5H586V172ZM586 204V204.5H586.5V204H586ZM554 204H553.5V204.5H554V204ZM554 172.5H586V171.5H554V172.5ZM585.5 172V204H586.5V172H585.5ZM586 203.5H554V204.5H586V203.5ZM554.5 204V172H553.5V204H554.5Z" fill="#331946" fill-opacity="0.27" mask="url(#path-183-inside-88_1204_536)"/>
<mask id="path-185-inside-89_1204_536" fill="white">
<path d="M586 172H618V204H586V172Z"/>
</mask>
<path d="M586 172V171.5H585.5V172H586ZM618 172H618.5V171.5H618V172ZM618 204V204.5H618.5V204H618ZM586 204H585.5V204.5H586V204ZM586 172.5H618V171.5H586V172.5ZM617.5 172V204H618.5V172H617.5ZM618 203.5H586V204.5H618V203.5ZM586.5 204V172H585.5V204H586.5Z" fill="#331946" fill-opacity="0.27" mask="url(#path-185-inside-89_1204_536)"/>
<mask id="path-187-inside-90_1204_536" fill="white">
<path d="M618 172H650V204H618V172Z"/>
</mask>
<path d="M618 172V171.5H617.5V172H618ZM650 172H651V171.5H650V172ZM650 204V204.5H651V204H650ZM618 204H617.5V204.5H618V204ZM618 172.5H650V171.5H618V172.5ZM649 172V204H651V172H649ZM650 203.5H618V204.5H650V203.5ZM618.5 204V172H617.5V204H618.5Z" fill="#331946" fill-opacity="0.27" mask="url(#path-187-inside-90_1204_536)"/>
<mask id="path-189-inside-91_1204_536" fill="white">
<path d="M170 204H202V236H170V204Z"/>
</mask>
<path d="M170 204V203.5H169.5V204H170ZM202 204H202.5V203.5H202V204ZM202 236V236.5H202.5V236H202ZM170 236H169.5V236.5H170V236ZM170 204.5H202V203.5H170V204.5ZM201.5 204V236H202.5V204H201.5ZM202 235.5H170V236.5H202V235.5ZM170.5 236V204H169.5V236H170.5Z" fill="#331946" fill-opacity="0.27" mask="url(#path-189-inside-91_1204_536)"/>
<mask id="path-191-inside-92_1204_536" fill="white">
<path d="M202 204H234V236H202V204Z"/>
</mask>
<path d="M202 204V203.5H201.5V204H202ZM234 204H234.5V203.5H234V204ZM234 236V236.5H234.5V236H234ZM202 236H201.5V236.5H202V236ZM202 204.5H234V203.5H202V204.5ZM233.5 204V236H234.5V204H233.5ZM234 235.5H202V236.5H234V235.5ZM202.5 236V204H201.5V236H202.5Z" fill="#331946" fill-opacity="0.27" mask="url(#path-191-inside-92_1204_536)"/>
<mask id="path-193-inside-93_1204_536" fill="white">
<path d="M234 204H266V236H234V204Z"/>
</mask>
<path d="M234 204V203.5H233.5V204H234ZM266 204H266.5V203.5H266V204ZM266 236V236.5H266.5V236H266ZM234 236H233.5V236.5H234V236ZM234 204.5H266V203.5H234V204.5ZM265.5 204V236H266.5V204H265.5ZM266 235.5H234V236.5H266V235.5ZM234.5 236V204H233.5V236H234.5Z" fill="#331946" fill-opacity="0.27" mask="url(#path-193-inside-93_1204_536)"/>
<mask id="path-195-inside-94_1204_536" fill="white">
<path d="M266 204H298V236H266V204Z"/>
</mask>
<path d="M266 204V203.5H265.5V204H266ZM298 204H298.5V203.5H298V204ZM298 236V236.5H298.5V236H298ZM266 236H265.5V236.5H266V236ZM266 204.5H298V203.5H266V204.5ZM297.5 204V236H298.5V204H297.5ZM298 235.5H266V236.5H298V235.5ZM266.5 236V204H265.5V236H266.5Z" fill="#331946" fill-opacity="0.27" mask="url(#path-195-inside-94_1204_536)"/>
<mask id="path-197-inside-95_1204_536" fill="white">
<path d="M298 204H330V236H298V204Z"/>
</mask>
<path d="M298 204V203.5H297.5V204H298ZM330 204H330.5V203.5H330V204ZM330 236V236.5H330.5V236H330ZM298 236H297.5V236.5H298V236ZM298 204.5H330V203.5H298V204.5ZM329.5 204V236H330.5V204H329.5ZM330 235.5H298V236.5H330V235.5ZM298.5 236V204H297.5V236H298.5Z" fill="#331946" fill-opacity="0.27" mask="url(#path-197-inside-95_1204_536)"/>
<mask id="path-199-inside-96_1204_536" fill="white">
<path d="M330 204H362V236H330V204Z"/>
</mask>
<path d="M330 204V203.5H329.5V204H330ZM362 204H362.5V203.5H362V204ZM362 236V236.5H362.5V236H362ZM330 236H329.5V236.5H330V236ZM330 204.5H362V203.5H330V204.5ZM361.5 204V236H362.5V204H361.5ZM362 235.5H330V236.5H362V235.5ZM330.5 236V204H329.5V236H330.5Z" fill="#331946" fill-opacity="0.27" mask="url(#path-199-inside-96_1204_536)"/>
<mask id="path-201-inside-97_1204_536" fill="white">
<path d="M362 204H394V236H362V204Z"/>
</mask>
<path d="M362 204V203.5H361.5V204H362ZM394 204H394.5V203.5H394V204ZM394 236V236.5H394.5V236H394ZM362 236H361.5V236.5H362V236ZM362 204.5H394V203.5H362V204.5ZM393.5 204V236H394.5V204H393.5ZM394 235.5H362V236.5H394V235.5ZM362.5 236V204H361.5V236H362.5Z" fill="#331946" fill-opacity="0.27" mask="url(#path-201-inside-97_1204_536)"/>
<mask id="path-203-inside-98_1204_536" fill="white">
<path d="M394 204H426V236H394V204Z"/>
</mask>
<path d="M394 204V203.5H393.5V204H394ZM426 204H426.5V203.5H426V204ZM426 236V236.5H426.5V236H426ZM394 236H393.5V236.5H394V236ZM394 204.5H426V203.5H394V204.5ZM425.5 204V236H426.5V204H425.5ZM426 235.5H394V236.5H426V235.5ZM394.5 236V204H393.5V236H394.5Z" fill="#331946" fill-opacity="0.27" mask="url(#path-203-inside-98_1204_536)"/>
<mask id="path-205-inside-99_1204_536" fill="white">
<path d="M426 204H458V236H426V204Z"/>
</mask>
<path d="M426 204V203.5H425.5V204H426ZM458 204H458.5V203.5H458V204ZM458 236V236.5H458.5V236H458ZM426 236H425.5V236.5H426V236ZM426 204.5H458V203.5H426V204.5ZM457.5 204V236H458.5V204H457.5ZM458 235.5H426V236.5H458V235.5ZM426.5 236V204H425.5V236H426.5Z" fill="#331946" fill-opacity="0.27" mask="url(#path-205-inside-99_1204_536)"/>
<mask id="path-207-inside-100_1204_536" fill="white">
<path d="M458 204H490V236H458V204Z"/>
</mask>
<path d="M458 204V203.5H457.5V204H458ZM490 204H490.5V203.5H490V204ZM490 236V236.5H490.5V236H490ZM458 236H457.5V236.5H458V236ZM458 204.5H490V203.5H458V204.5ZM489.5 204V236H490.5V204H489.5ZM490 235.5H458V236.5H490V235.5ZM458.5 236V204H457.5V236H458.5Z" fill="#331946" fill-opacity="0.27" mask="url(#path-207-inside-100_1204_536)"/>
<mask id="path-209-inside-101_1204_536" fill="white">
<path d="M490 204H522V236H490V204Z"/>
</mask>
<path d="M490 204V203.5H489.5V204H490ZM522 204H522.5V203.5H522V204ZM522 236V236.5H522.5V236H522ZM490 236H489.5V236.5H490V236ZM490 204.5H522V203.5H490V204.5ZM521.5 204V236H522.5V204H521.5ZM522 235.5H490V236.5H522V235.5ZM490.5 236V204H489.5V236H490.5Z" fill="#331946" fill-opacity="0.27" mask="url(#path-209-inside-101_1204_536)"/>
<mask id="path-211-inside-102_1204_536" fill="white">
<path d="M522 204H554V236H522V204Z"/>
</mask>
<path d="M522 204V203.5H521.5V204H522ZM554 204H554.5V203.5H554V204ZM554 236V236.5H554.5V236H554ZM522 236H521.5V236.5H522V236ZM522 204.5H554V203.5H522V204.5ZM553.5 204V236H554.5V204H553.5ZM554 235.5H522V236.5H554V235.5ZM522.5 236V204H521.5V236H522.5Z" fill="#331946" fill-opacity="0.27" mask="url(#path-211-inside-102_1204_536)"/>
<mask id="path-213-inside-103_1204_536" fill="white">
<path d="M554 204H586V236H554V204Z"/>
</mask>
<path d="M554 204V203.5H553.5V204H554ZM586 204H586.5V203.5H586V204ZM586 236V236.5H586.5V236H586ZM554 236H553.5V236.5H554V236ZM554 204.5H586V203.5H554V204.5ZM585.5 204V236H586.5V204H585.5ZM586 235.5H554V236.5H586V235.5ZM554.5 236V204H553.5V236H554.5Z" fill="#331946" fill-opacity="0.27" mask="url(#path-213-inside-103_1204_536)"/>
<mask id="path-215-inside-104_1204_536" fill="white">
<path d="M586 204H618V236H586V204Z"/>
</mask>
<path d="M586 204V203.5H585.5V204H586ZM618 204H618.5V203.5H618V204ZM618 236V236.5H618.5V236H618ZM586 236H585.5V236.5H586V236ZM586 204.5H618V203.5H586V204.5ZM617.5 204V236H618.5V204H617.5ZM618 235.5H586V236.5H618V235.5ZM586.5 236V204H585.5V236H586.5Z" fill="#331946" fill-opacity="0.27" mask="url(#path-215-inside-104_1204_536)"/>
<mask id="path-217-inside-105_1204_536" fill="white">
<path d="M618 204H650V236H618V204Z"/>
</mask>
<path d="M618 204V203.5H617.5V204H618ZM650 204H651V203.5H650V204ZM650 236V236.5H651V236H650ZM618 236H617.5V236.5H618V236ZM618 204.5H650V203.5H618V204.5ZM649 204V236H651V204H649ZM650 235.5H618V236.5H650V235.5ZM618.5 236V204H617.5V236H618.5Z" fill="#331946" fill-opacity="0.27" mask="url(#path-217-inside-105_1204_536)"/>
<mask id="path-219-inside-106_1204_536" fill="white">
<path d="M170 236H202V268H170V236Z"/>
</mask>
<path d="M170 236V235.5H169.5V236H170ZM202 236H202.5V235.5H202V236ZM202 268V268.5H202.5V268H202ZM170 268H169.5V268.5H170V268ZM170 236.5H202V235.5H170V236.5ZM201.5 236V268H202.5V236H201.5ZM202 267.5H170V268.5H202V267.5ZM170.5 268V236H169.5V268H170.5Z" fill="#331946" fill-opacity="0.27" mask="url(#path-219-inside-106_1204_536)"/>
<mask id="path-221-inside-107_1204_536" fill="white">
<path d="M202 236H234V268H202V236Z"/>
</mask>
<path d="M202 236V235.5H201.5V236H202ZM234 236H234.5V235.5H234V236ZM234 268V268.5H234.5V268H234ZM202 268H201.5V268.5H202V268ZM202 236.5H234V235.5H202V236.5ZM233.5 236V268H234.5V236H233.5ZM234 267.5H202V268.5H234V267.5ZM202.5 268V236H201.5V268H202.5Z" fill="#331946" fill-opacity="0.27" mask="url(#path-221-inside-107_1204_536)"/>
<mask id="path-223-inside-108_1204_536" fill="white">
<path d="M234 236H266V268H234V236Z"/>
</mask>
<path d="M234 236V235.5H233.5V236H234ZM266 236H266.5V235.5H266V236ZM266 268V268.5H266.5V268H266ZM234 268H233.5V268.5H234V268ZM234 236.5H266V235.5H234V236.5ZM265.5 236V268H266.5V236H265.5ZM266 267.5H234V268.5H266V267.5ZM234.5 268V236H233.5V268H234.5Z" fill="#331946" fill-opacity="0.27" mask="url(#path-223-inside-108_1204_536)"/>
<mask id="path-225-inside-109_1204_536" fill="white">
<path d="M266 236H298V268H266V236Z"/>
</mask>
<path d="M266 236V235.5H265.5V236H266ZM298 236H298.5V235.5H298V236ZM298 268V268.5H298.5V268H298ZM266 268H265.5V268.5H266V268ZM266 236.5H298V235.5H266V236.5ZM297.5 236V268H298.5V236H297.5ZM298 267.5H266V268.5H298V267.5ZM266.5 268V236H265.5V268H266.5Z" fill="#331946" fill-opacity="0.27" mask="url(#path-225-inside-109_1204_536)"/>
<mask id="path-227-inside-110_1204_536" fill="white">
<path d="M298 236H330V268H298V236Z"/>
</mask>
<path d="M298 236V235.5H297.5V236H298ZM330 236H330.5V235.5H330V236ZM330 268V268.5H330.5V268H330ZM298 268H297.5V268.5H298V268ZM298 236.5H330V235.5H298V236.5ZM329.5 236V268H330.5V236H329.5ZM330 267.5H298V268.5H330V267.5ZM298.5 268V236H297.5V268H298.5Z" fill="#331946" fill-opacity="0.27" mask="url(#path-227-inside-110_1204_536)"/>
<mask id="path-229-inside-111_1204_536" fill="white">
<path d="M330 236H362V268H330V236Z"/>
</mask>
<path d="M330 236V235.5H329.5V236H330ZM362 236H362.5V235.5H362V236ZM362 268V268.5H362.5V268H362ZM330 268H329.5V268.5H330V268ZM330 236.5H362V235.5H330V236.5ZM361.5 236V268H362.5V236H361.5ZM362 267.5H330V268.5H362V267.5ZM330.5 268V236H329.5V268H330.5Z" fill="#331946" fill-opacity="0.27" mask="url(#path-229-inside-111_1204_536)"/>
<mask id="path-231-inside-112_1204_536" fill="white">
<path d="M362 236H394V268H362V236Z"/>
</mask>
<path d="M362 236V235.5H361.5V236H362ZM394 236H394.5V235.5H394V236ZM394 268V268.5H394.5V268H394ZM362 268H361.5V268.5H362V268ZM362 236.5H394V235.5H362V236.5ZM393.5 236V268H394.5V236H393.5ZM394 267.5H362V268.5H394V267.5ZM362.5 268V236H361.5V268H362.5Z" fill="#331946" fill-opacity="0.27" mask="url(#path-231-inside-112_1204_536)"/>
<mask id="path-233-inside-113_1204_536" fill="white">
<path d="M394 236H426V268H394V236Z"/>
</mask>
<path d="M394 236V235.5H393.5V236H394ZM426 236H426.5V235.5H426V236ZM426 268V268.5H426.5V268H426ZM394 268H393.5V268.5H394V268ZM394 236.5H426V235.5H394V236.5ZM425.5 236V268H426.5V236H425.5ZM426 267.5H394V268.5H426V267.5ZM394.5 268V236H393.5V268H394.5Z" fill="#331946" fill-opacity="0.27" mask="url(#path-233-inside-113_1204_536)"/>
<mask id="path-235-inside-114_1204_536" fill="white">
<path d="M426 236H458V268H426V236Z"/>
</mask>
<path d="M426 236V235.5H425.5V236H426ZM458 236H458.5V235.5H458V236ZM458 268V268.5H458.5V268H458ZM426 268H425.5V268.5H426V268ZM426 236.5H458V235.5H426V236.5ZM457.5 236V268H458.5V236H457.5ZM458 267.5H426V268.5H458V267.5ZM426.5 268V236H425.5V268H426.5Z" fill="#331946" fill-opacity="0.27" mask="url(#path-235-inside-114_1204_536)"/>
<mask id="path-237-inside-115_1204_536" fill="white">
<path d="M458 236H490V268H458V236Z"/>
</mask>
<path d="M458 236V235.5H457.5V236H458ZM490 236H490.5V235.5H490V236ZM490 268V268.5H490.5V268H490ZM458 268H457.5V268.5H458V268ZM458 236.5H490V235.5H458V236.5ZM489.5 236V268H490.5V236H489.5ZM490 267.5H458V268.5H490V267.5ZM458.5 268V236H457.5V268H458.5Z" fill="#331946" fill-opacity="0.27" mask="url(#path-237-inside-115_1204_536)"/>
<mask id="path-239-inside-116_1204_536" fill="white">
<path d="M490 236H522V268H490V236Z"/>
</mask>
<path d="M490 236V235.5H489.5V236H490ZM522 236H522.5V235.5H522V236ZM522 268V268.5H522.5V268H522ZM490 268H489.5V268.5H490V268ZM490 236.5H522V235.5H490V236.5ZM521.5 236V268H522.5V236H521.5ZM522 267.5H490V268.5H522V267.5ZM490.5 268V236H489.5V268H490.5Z" fill="#331946" fill-opacity="0.27" mask="url(#path-239-inside-116_1204_536)"/>
<mask id="path-241-inside-117_1204_536" fill="white">
<path d="M522 236H554V268H522V236Z"/>
</mask>
<path d="M522 236V235.5H521.5V236H522ZM554 236H554.5V235.5H554V236ZM554 268V268.5H554.5V268H554ZM522 268H521.5V268.5H522V268ZM522 236.5H554V235.5H522V236.5ZM553.5 236V268H554.5V236H553.5ZM554 267.5H522V268.5H554V267.5ZM522.5 268V236H521.5V268H522.5Z" fill="#331946" fill-opacity="0.27" mask="url(#path-241-inside-117_1204_536)"/>
<mask id="path-243-inside-118_1204_536" fill="white">
<path d="M554 236H586V268H554V236Z"/>
</mask>
<path d="M554 236V235.5H553.5V236H554ZM586 236H586.5V235.5H586V236ZM586 268V268.5H586.5V268H586ZM554 268H553.5V268.5H554V268ZM554 236.5H586V235.5H554V236.5ZM585.5 236V268H586.5V236H585.5ZM586 267.5H554V268.5H586V267.5ZM554.5 268V236H553.5V268H554.5Z" fill="#331946" fill-opacity="0.27" mask="url(#path-243-inside-118_1204_536)"/>
<mask id="path-245-inside-119_1204_536" fill="white">
<path d="M586 236H618V268H586V236Z"/>
</mask>
<path d="M586 236V235.5H585.5V236H586ZM618 236H618.5V235.5H618V236ZM618 268V268.5H618.5V268H618ZM586 268H585.5V268.5H586V268ZM586 236.5H618V235.5H586V236.5ZM617.5 236V268H618.5V236H617.5ZM618 267.5H586V268.5H618V267.5ZM586.5 268V236H585.5V268H586.5Z" fill="#331946" fill-opacity="0.27" mask="url(#path-245-inside-119_1204_536)"/>
<mask id="path-247-inside-120_1204_536" fill="white">
<path d="M618 236H650V268H618V236Z"/>
</mask>
<path d="M618 236V235.5H617.5V236H618ZM650 236H651V235.5H650V236ZM650 268V268.5H651V268H650ZM618 268H617.5V268.5H618V268ZM618 236.5H650V235.5H618V236.5ZM649 236V268H651V236H649ZM650 267.5H618V268.5H650V267.5ZM618.5 268V236H617.5V268H618.5Z" fill="#331946" fill-opacity="0.27" mask="url(#path-247-inside-120_1204_536)"/>
<circle cx="506" cy="252" r="12" fill="#9A59BA" fill-opacity="0.3"/>
<circle cx="506" cy="252" r="8" fill="#9A59BA" fill-opacity="0.4"/>
<circle cx="506" cy="252" r="4" fill="#9A59BA"/>
<mask id="path-252-inside-121_1204_536" fill="white">
<path d="M170 268H202V300H170V268Z"/>
</mask>
<path d="M170 268V267.5H169.5V268H170ZM202 268H202.5V267.5H202V268ZM202 300V300.5H202.5V300H202ZM170 300H169.5V300.5H170V300ZM170 268.5H202V267.5H170V268.5ZM201.5 268V300H202.5V268H201.5ZM202 299.5H170V300.5H202V299.5ZM170.5 300V268H169.5V300H170.5Z" fill="#331946" fill-opacity="0.27" mask="url(#path-252-inside-121_1204_536)"/>
<mask id="path-254-inside-122_1204_536" fill="white">
<path d="M202 268H234V300H202V268Z"/>
</mask>
<path d="M202 268V267.5H201.5V268H202ZM234 268H234.5V267.5H234V268ZM234 300V300.5H234.5V300H234ZM202 300H201.5V300.5H202V300ZM202 268.5H234V267.5H202V268.5ZM233.5 268V300H234.5V268H233.5ZM234 299.5H202V300.5H234V299.5ZM202.5 300V268H201.5V300H202.5Z" fill="#331946" fill-opacity="0.27" mask="url(#path-254-inside-122_1204_536)"/>
<mask id="path-256-inside-123_1204_536" fill="white">
<path d="M234 268H266V300H234V268Z"/>
</mask>
<path d="M234 268V267.5H233.5V268H234ZM266 268H266.5V267.5H266V268ZM266 300V300.5H266.5V300H266ZM234 300H233.5V300.5H234V300ZM234 268.5H266V267.5H234V268.5ZM265.5 268V300H266.5V268H265.5ZM266 299.5H234V300.5H266V299.5ZM234.5 300V268H233.5V300H234.5Z" fill="#331946" fill-opacity="0.27" mask="url(#path-256-inside-123_1204_536)"/>
<mask id="path-258-inside-124_1204_536" fill="white">
<path d="M266 268H298V300H266V268Z"/>
</mask>
<path d="M266 268V267.5H265.5V268H266ZM298 268H298.5V267.5H298V268ZM298 300V300.5H298.5V300H298ZM266 300H265.5V300.5H266V300ZM266 268.5H298V267.5H266V268.5ZM297.5 268V300H298.5V268H297.5ZM298 299.5H266V300.5H298V299.5ZM266.5 300V268H265.5V300H266.5Z" fill="#331946" fill-opacity="0.27" mask="url(#path-258-inside-124_1204_536)"/>
<mask id="path-260-inside-125_1204_536" fill="white">
<path d="M298 268H330V300H298V268Z"/>
</mask>
<path d="M298 268V267.5H297.5V268H298ZM330 268H330.5V267.5H330V268ZM330 300V300.5H330.5V300H330ZM298 300H297.5V300.5H298V300ZM298 268.5H330V267.5H298V268.5ZM329.5 268V300H330.5V268H329.5ZM330 299.5H298V300.5H330V299.5ZM298.5 300V268H297.5V300H298.5Z" fill="#331946" fill-opacity="0.27" mask="url(#path-260-inside-125_1204_536)"/>
<mask id="path-262-inside-126_1204_536" fill="white">
<path d="M330 268H362V300H330V268Z"/>
</mask>
<path d="M330 268V267.5H329.5V268H330ZM362 268H362.5V267.5H362V268ZM362 300V300.5H362.5V300H362ZM330 300H329.5V300.5H330V300ZM330 268.5H362V267.5H330V268.5ZM361.5 268V300H362.5V268H361.5ZM362 299.5H330V300.5H362V299.5ZM330.5 300V268H329.5V300H330.5Z" fill="#331946" fill-opacity="0.27" mask="url(#path-262-inside-126_1204_536)"/>
<mask id="path-264-inside-127_1204_536" fill="white">
<path d="M362 268H394V300H362V268Z"/>
</mask>
<path d="M362 268V267.5H361.5V268H362ZM394 268H394.5V267.5H394V268ZM394 300V300.5H394.5V300H394ZM362 300H361.5V300.5H362V300ZM362 268.5H394V267.5H362V268.5ZM393.5 268V300H394.5V268H393.5ZM394 299.5H362V300.5H394V299.5ZM362.5 300V268H361.5V300H362.5Z" fill="#331946" fill-opacity="0.27" mask="url(#path-264-inside-127_1204_536)"/>
<mask id="path-266-inside-128_1204_536" fill="white">
<path d="M394 268H426V300H394V268Z"/>
</mask>
<path d="M394 268V267.5H393.5V268H394ZM426 268H426.5V267.5H426V268ZM426 300V300.5H426.5V300H426ZM394 300H393.5V300.5H394V300ZM394 268.5H426V267.5H394V268.5ZM425.5 268V300H426.5V268H425.5ZM426 299.5H394V300.5H426V299.5ZM394.5 300V268H393.5V300H394.5Z" fill="#331946" fill-opacity="0.27" mask="url(#path-266-inside-128_1204_536)"/>
<mask id="path-268-inside-129_1204_536" fill="white">
<path d="M426 268H458V300H426V268Z"/>
</mask>
<path d="M426 268V267.5H425.5V268H426ZM458 268H458.5V267.5H458V268ZM458 300V300.5H458.5V300H458ZM426 300H425.5V300.5H426V300ZM426 268.5H458V267.5H426V268.5ZM457.5 268V300H458.5V268H457.5ZM458 299.5H426V300.5H458V299.5ZM426.5 300V268H425.5V300H426.5Z" fill="#331946" fill-opacity="0.27" mask="url(#path-268-inside-129_1204_536)"/>
<mask id="path-270-inside-130_1204_536" fill="white">
<path d="M458 268H490V300H458V268Z"/>
</mask>
<path d="M458 268V267.5H457.5V268H458ZM490 268H490.5V267.5H490V268ZM490 300V300.5H490.5V300H490ZM458 300H457.5V300.5H458V300ZM458 268.5H490V267.5H458V268.5ZM489.5 268V300H490.5V268H489.5ZM490 299.5H458V300.5H490V299.5ZM458.5 300V268H457.5V300H458.5Z" fill="#331946" fill-opacity="0.27" mask="url(#path-270-inside-130_1204_536)"/>
<mask id="path-272-inside-131_1204_536" fill="white">
<path d="M490 268H522V300H490V268Z"/>
</mask>
<path d="M490 268V267.5H489.5V268H490ZM522 268H522.5V267.5H522V268ZM522 300V300.5H522.5V300H522ZM490 300H489.5V300.5H490V300ZM490 268.5H522V267.5H490V268.5ZM521.5 268V300H522.5V268H521.5ZM522 299.5H490V300.5H522V299.5ZM490.5 300V268H489.5V300H490.5Z" fill="#331946" fill-opacity="0.27" mask="url(#path-272-inside-131_1204_536)"/>
<mask id="path-274-inside-132_1204_536" fill="white">
<path d="M522 268H554V300H522V268Z"/>
</mask>
<path d="M522 268V267.5H521.5V268H522ZM554 268H554.5V267.5H554V268ZM554 300V300.5H554.5V300H554ZM522 300H521.5V300.5H522V300ZM522 268.5H554V267.5H522V268.5ZM553.5 268V300H554.5V268H553.5ZM554 299.5H522V300.5H554V299.5ZM522.5 300V268H521.5V300H522.5Z" fill="#331946" fill-opacity="0.27" mask="url(#path-274-inside-132_1204_536)"/>
<mask id="path-276-inside-133_1204_536" fill="white">
<path d="M554 268H586V300H554V268Z"/>
</mask>
<path d="M554 268V267.5H553.5V268H554ZM586 268H586.5V267.5H586V268ZM586 300V300.5H586.5V300H586ZM554 300H553.5V300.5H554V300ZM554 268.5H586V267.5H554V268.5ZM585.5 268V300H586.5V268H585.5ZM586 299.5H554V300.5H586V299.5ZM554.5 300V268H553.5V300H554.5Z" fill="#331946" fill-opacity="0.27" mask="url(#path-276-inside-133_1204_536)"/>
<mask id="path-278-inside-134_1204_536" fill="white">
<path d="M586 268H618V300H586V268Z"/>
</mask>
<path d="M586 268V267.5H585.5V268H586ZM618 268H618.5V267.5H618V268ZM618 300V300.5H618.5V300H618ZM586 300H585.5V300.5H586V300ZM586 268.5H618V267.5H586V268.5ZM617.5 268V300H618.5V268H617.5ZM618 299.5H586V300.5H618V299.5ZM586.5 300V268H585.5V300H586.5Z" fill="#331946" fill-opacity="0.27" mask="url(#path-278-inside-134_1204_536)"/>
<mask id="path-280-inside-135_1204_536" fill="white">
<path d="M618 268H650V300H618V268Z"/>
</mask>
<path d="M618 268V267.5H617.5V268H618ZM650 268H651V267.5H650V268ZM650 300V300.5H651V300H650ZM618 300H617.5V300.5H618V300ZM618 268.5H650V267.5H618V268.5ZM649 268V300H651V268H649ZM650 299.5H618V300.5H650V299.5ZM618.5 300V268H617.5V300H618.5Z" fill="#331946" fill-opacity="0.27" mask="url(#path-280-inside-135_1204_536)"/>
<path d="M218 59.0049C196.127 58.9166 193.089 60.0532 170 59.9981" stroke="#9A59BA" stroke-width="6"/>
<path d="M214 237.005C192.127 236.917 189.089 238.053 166 237.998" stroke="#9A59BA" stroke-width="6"/>
<rect x="195" y="36" width="46" height="46" rx="9" fill="#4F247A"/>
<rect x="195" y="36" width="46" height="46" rx="9" stroke="#191028" stroke-width="2"/>
<circle cx="218" cy="59" r="9" stroke="#9A59BA" stroke-width="6"/>
<rect x="195" y="212" width="46" height="46" rx="9" fill="#4F247A"/>
<rect x="195" y="212" width="46" height="46" rx="9" stroke="#191028" stroke-width="2"/>
<circle cx="218" cy="235" r="9" stroke="#9A59BA" stroke-width="6"/>
<path d="M226 59.4353C313.038 51.5784 325.127 152.738 417 147.827" stroke="#9A59BA" stroke-width="6"/>
<path d="M226 234.574C313.038 242.255 325.127 143.369 417 148.169" stroke="#9A59BA" stroke-width="6"/>
<g filter="url(#filter1_f_1204_536)">
<path d="M180.083 245.239C192.385 235.31 461.703 -1.16215 341.876 156.927C340.783 158.369 339.353 159.791 338.002 160.994C314.561 181.858 279.005 261.897 267.006 271.582C254.644 281.56 165.771 300.283 161.786 291.461C155.396 283.545 167.721 255.218 180.083 245.239Z" fill="#9A59BA"/>
</g>
<g filter="url(#filter2_f_1204_536)">
<path d="M534.083 57.2395C546.385 47.3096 815.703 -189.162 695.876 -31.0731C694.783 -29.6312 693.353 -28.2085 692.002 -27.0057C668.561 -6.14235 633.005 73.8973 621.006 83.582C608.644 93.5602 519.771 112.283 515.786 103.461C509.396 95.545 521.721 67.2177 534.083 57.2395Z" fill="#9A59BA"/>
</g>
<g clip-path="url(#clip1_1204_536)">
<rect width="48" height="88" transform="translate(417 59)" fill="#4F247A"/>
<path d="M443.486 94.1429C443.741 94.2147 443.958 94.3849 444.087 94.6161C444.217 94.8473 444.25 95.1206 444.178 95.3759L439.748 111.164C439.713 111.29 439.653 111.409 439.571 111.512C439.49 111.615 439.39 111.701 439.275 111.766C439.161 111.83 439.034 111.871 438.904 111.887C438.774 111.903 438.641 111.892 438.515 111.857C438.389 111.821 438.27 111.761 438.167 111.68C438.064 111.599 437.977 111.498 437.913 111.384C437.849 111.269 437.808 111.143 437.792 111.013C437.776 110.883 437.787 110.75 437.822 110.624L442.252 94.8359C442.287 94.7093 442.347 94.591 442.429 94.4876C442.51 94.3842 442.611 94.2979 442.725 94.2336C442.84 94.1692 442.966 94.1281 443.097 94.1125C443.227 94.0969 443.359 94.1073 443.486 94.1429ZM436.207 98.0499C436.394 98.2374 436.5 98.4917 436.5 98.7569C436.5 99.0221 436.394 99.2764 436.207 99.4639L432.672 103L436.207 106.535C436.3 106.628 436.374 106.738 436.424 106.859C436.474 106.981 436.5 107.111 436.5 107.242C436.5 107.373 436.474 107.503 436.424 107.625C436.374 107.746 436.3 107.856 436.207 107.949C436.115 108.042 436.004 108.116 435.883 108.166C435.762 108.217 435.632 108.243 435.5 108.243C435.369 108.243 435.239 108.217 435.118 108.167C434.996 108.116 434.886 108.043 434.793 107.95L430.55 103.707C430.363 103.519 430.257 103.265 430.257 103C430.257 102.735 430.363 102.48 430.55 102.293L434.793 98.0499C434.981 97.8624 435.235 97.7571 435.5 97.7571C435.765 97.7571 436.019 97.8624 436.207 98.0499ZM445.793 99.4639C445.697 99.3716 445.621 99.2613 445.569 99.1393C445.516 99.0173 445.489 98.8861 445.488 98.7533C445.487 98.6205 445.512 98.4888 445.562 98.3659C445.612 98.243 445.687 98.1314 445.781 98.0375C445.874 97.9436 445.986 97.8694 446.109 97.8191C446.232 97.7688 446.364 97.7435 446.496 97.7446C446.629 97.7458 446.76 97.7734 446.882 97.8258C447.004 97.8782 447.115 97.9544 447.207 98.0499L451.45 102.293C451.637 102.48 451.743 102.735 451.743 103C451.743 103.265 451.637 103.519 451.45 103.707L447.207 107.95C447.019 108.137 446.765 108.243 446.5 108.243C446.234 108.243 445.98 108.137 445.792 107.949C445.605 107.762 445.5 107.507 445.5 107.242C445.5 106.977 445.605 106.722 445.793 106.535L449.328 103L445.793 99.4639Z" fill="white"/>
<rect width="48" height="88" transform="translate(417 147)" fill="#381B55"/>
<circle cx="441" cy="191" r="9" stroke="#9A59BA" stroke-width="6"/>
</g>
<rect x="418" y="60" width="46" height="174" rx="9" stroke="#191028" stroke-width="2"/>
<circle cx="379" cy="28" r="12" fill="#9A59BA" fill-opacity="0.3"/>
<circle cx="379" cy="28" r="8" fill="#9A59BA" fill-opacity="0.4"/>
<circle cx="379" cy="28" r="4" fill="#9A59BA"/>
<path d="M449 190.57C536.038 198.338 548.127 98.3157 640 103.171" stroke="#9A59BA" stroke-width="6"/>
</g>
<path d="M171 21C171 16.0294 175.029 12 180 12H639V282H171V21Z" stroke="#733790" stroke-width="2"/>
</g>
<rect y="11" width="60" height="2" rx="1" fill="#4E2064"/>
<rect y="17" width="30" height="2" rx="1" fill="#4E2064"/>
<rect y="23" width="30" height="2" rx="1" fill="#4E2064"/>
<rect y="29" width="30" height="2" rx="1" fill="#4E2064"/>
<rect y="35" width="30" height="2" rx="1" fill="#4E2064"/>
<rect y="41" width="60" height="2" rx="1" fill="#4E2064"/>
<rect y="47" width="30" height="2" rx="1" fill="#4E2064"/>
<rect y="53" width="30" height="2" rx="1" fill="#4E2064"/>
<rect y="59" width="30" height="2" rx="1" fill="#4E2064"/>
<rect y="65" width="30" height="2" rx="1" fill="#4E2064"/>
<rect y="71" width="60" height="2" rx="1" fill="#4E2064"/>
<rect y="77" width="30" height="2" rx="1" fill="#4E2064"/>
<rect y="83" width="30" height="2" rx="1" fill="#4E2064"/>
<rect y="89" width="30" height="2" rx="1" fill="#4E2064"/>
<rect y="95" width="30" height="2" rx="1" fill="#4E2064"/>
<rect y="101" width="60" height="2" rx="1" fill="#4E2064"/>
<rect y="107" width="30" height="2" rx="1" fill="#4E2064"/>
<rect y="113" width="30" height="2" rx="1" fill="#4E2064"/>
<rect y="119" width="30" height="2" rx="1" fill="#4E2064"/>
<rect y="125" width="30" height="2" rx="1" fill="#4E2064"/>
<rect y="131" width="60" height="2" rx="1" fill="#4E2064"/>
<rect y="137" width="30" height="2" rx="1" fill="#4E2064"/>
<rect y="143" width="30" height="2" rx="1" fill="#4E2064"/>
<rect y="149" width="30" height="2" rx="1" fill="#4E2064"/>
<rect y="155" width="30" height="2" rx="1" fill="#4E2064"/>
<rect y="161" width="60" height="2" rx="1" fill="#4E2064"/>
<rect y="167" width="30" height="2" rx="1" fill="#4E2064"/>
<rect y="173" width="30" height="2" rx="1" fill="#4E2064"/>
<rect y="179" width="30" height="2" rx="1" fill="#4E2064"/>
<rect y="185" width="30" height="2" rx="1" fill="#4E2064"/>
<rect y="191" width="170" height="2" fill="#4E2064"/>
<rect y="197" width="30" height="2" rx="1" fill="#4E2064"/>
<rect y="203" width="30" height="2" rx="1" fill="#4E2064"/>
<rect y="209" width="30" height="2" rx="1" fill="#4E2064"/>
<rect y="215" width="30" height="2" rx="1" fill="#4E2064"/>
<rect y="221" width="60" height="2" rx="1" fill="#4E2064"/>
<rect y="227" width="30" height="2" rx="1" fill="#4E2064"/>
<rect y="233" width="30" height="2" rx="1" fill="#4E2064"/>
<rect y="239" width="30" height="2" rx="1" fill="#4E2064"/>
<rect y="245" width="30" height="2" rx="1" fill="#4E2064"/>
<rect y="251" width="170" height="2" fill="#4E2064"/>
<rect y="257" width="30" height="2" rx="1" fill="#4E2064"/>
<rect y="263" width="30" height="2" rx="1" fill="#4E2064"/>
<rect y="269" width="30" height="2" rx="1" fill="#4E2064"/>
<rect y="275" width="30" height="2" rx="1" fill="#4E2064"/>
<rect y="281" width="60" height="2" rx="1" fill="#4E2064"/>
<rect y="287" width="30" height="2" rx="1" fill="#4E2064"/>
<rect y="293" width="30" height="2" rx="1" fill="#4E2064"/>
<rect y="299" width="30" height="2" rx="1" fill="#4E2064"/>
<rect y="305" width="30" height="2" rx="1" fill="#4E2064"/>
<rect y="311" width="60" height="2" rx="1" fill="#4E2064"/>
<path d="M57 42C134.159 42 74.9207 154.263 170 156" stroke="#4E2064" stroke-width="2"/>
<circle cx="60" cy="12" r="12" fill="#72398F" fill-opacity="0.3"/>
<circle cx="60" cy="12" r="8" fill="#8643A6" fill-opacity="0.4"/>
<circle cx="60" cy="12" r="4" fill="#6D308B"/>
<circle cx="60" cy="223" r="12" fill="#72398F" fill-opacity="0.3"/>
<circle cx="60" cy="223" r="8" fill="#8643A6" fill-opacity="0.4"/>
<circle cx="60" cy="223" r="4" fill="#6D308B"/>
<defs>
<filter id="filter0_i_1204_536" x="170" y="11" width="470" height="277" filterUnits="userSpaceOnUse" color-interpolation-filters="sRGB">
<feFlood flood-opacity="0" result="BackgroundImageFix"/>
<feBlend mode="normal" in="SourceGraphic" in2="BackgroundImageFix" result="shape"/>
<feColorMatrix in="SourceAlpha" type="matrix" values="0 0 0 0 0 0 0 0 0 0 0 0 0 0 0 0 0 0 127 0" result="hardAlpha"/>
<feOffset dy="5"/>
<feGaussianBlur stdDeviation="10"/>
<feComposite in2="hardAlpha" operator="arithmetic" k2="-1" k3="1"/>
<feColorMatrix type="matrix" values="0 0 0 0 0.604064 0 0 0 0 0.348898 0 0 0 0 0.729622 0 0 0 0.6 0"/>
<feBlend mode="normal" in2="shape" result="effect1_innerShadow_1204_536"/>
</filter>
<filter id="filter1_f_1204_536" x="-39.9575" y="-97.365" width="612.485" height="591.124" filterUnits="userSpaceOnUse" color-interpolation-filters="sRGB">
<feFlood flood-opacity="0" result="BackgroundImageFix"/>
<feBlend mode="normal" in="SourceGraphic" in2="BackgroundImageFix" result="shape"/>
<feGaussianBlur stdDeviation="100" result="effect1_foregroundBlur_1204_536"/>
</filter>
<filter id="filter2_f_1204_536" x="314.043" y="-285.365" width="612.485" height="591.124" filterUnits="userSpaceOnUse" color-interpolation-filters="sRGB">
<feFlood flood-opacity="0" result="BackgroundImageFix"/>
<feBlend mode="normal" in="SourceGraphic" in2="BackgroundImageFix" result="shape"/>
<feGaussianBlur stdDeviation="100" result="effect1_foregroundBlur_1204_536"/>
</filter>
<clipPath id="clip0_1204_536">
<path d="M170 21C170 15.4771 174.477 11 180 11H640V283H170V21Z" fill="white"/>
</clipPath>
<clipPath id="clip1_1204_536">
<rect x="417" y="59" width="48" height="176" rx="10" fill="white"/>
</clipPath>
</defs>
</svg>
