<svg width="174" height="189" viewBox="0 0 174 189" fill="none" xmlns="http://www.w3.org/2000/svg">
<path d="M136 75.8867L138.887 73L136 70.1132L133.113 73L136 75.8867ZM89 15.5H126V14.5H89V15.5ZM135.5 25V73H136.5V25H135.5ZM126 15.5C131.247 15.5 135.5 19.7533 135.5 25H136.5C136.5 19.201 131.799 14.5 126 14.5V15.5Z" fill="#401B5C"/>
<path d="M136 104.113L138.887 107L136 109.887L133.113 107L136 104.113ZM118 172.5H126V173.5H118V172.5ZM135.5 163V107H136.5V163H135.5ZM126 172.5C131.247 172.5 135.5 168.247 135.5 163H136.5C136.5 168.799 131.799 173.5 126 173.5V172.5Z" fill="#401B5C"/>
<g filter="url(#filter0_i_1208_793)">
<path d="M85 89.5C85 80.9396 91.9396 74 100.5 74H158.5C167.06 74 174 80.9396 174 89.5C174 98.0604 167.06 105 158.5 105H100.5C91.9396 105 85 98.0604 85 89.5Z" fill="#9A59BA" fill-opacity="0.5"/>
<path d="M85.5 89.5C85.5 81.2157 92.2157 74.5 100.5 74.5H158.5C166.784 74.5 173.5 81.2157 173.5 89.5C173.5 97.7843 166.784 104.5 158.5 104.5H100.5C92.2157 104.5 85.5 97.7843 85.5 89.5Z" stroke="#9A59BA"/>
<path d="M95.994 94V85.2727H97.3107V92.8665H101.265V94H95.994ZM102.665 94V87.4545H103.939V94H102.665ZM103.309 86.4446C103.087 86.4446 102.897 86.3707 102.738 86.223C102.581 86.0724 102.503 85.8935 102.503 85.6861C102.503 85.4759 102.581 85.2969 102.738 85.1491C102.897 84.9986 103.087 84.9233 103.309 84.9233C103.53 84.9233 103.719 84.9986 103.875 85.1491C104.034 85.2969 104.114 85.4759 104.114 85.6861C104.114 85.8935 104.034 86.0724 103.875 86.223C103.719 86.3707 103.53 86.4446 103.309 86.4446ZM111.253 87.4545L108.879 94H107.516L105.138 87.4545H106.506L108.163 92.4915H108.232L109.885 87.4545H111.253ZM115.049 94.1321C114.404 94.1321 113.848 93.9943 113.382 93.7188C112.919 93.4403 112.561 93.0497 112.309 92.5469C112.059 92.0412 111.934 91.4489 111.934 90.7699C111.934 90.0994 112.059 89.5085 112.309 88.9972C112.561 88.4858 112.914 88.0866 113.365 87.7997C113.82 87.5128 114.351 87.3693 114.959 87.3693C115.328 87.3693 115.686 87.4304 116.033 87.5526C116.38 87.6747 116.691 87.8665 116.966 88.1278C117.242 88.3892 117.459 88.7287 117.618 89.1463C117.777 89.5611 117.857 90.0653 117.857 90.6591V91.1108H112.654V90.1562H116.608C116.608 89.821 116.54 89.5241 116.404 89.2656C116.267 89.0043 116.076 88.7983 115.828 88.6477C115.584 88.4972 115.297 88.4219 114.968 88.4219C114.61 88.4219 114.297 88.5099 114.03 88.6861C113.766 88.8594 113.561 89.0866 113.417 89.3679C113.275 89.6463 113.203 89.9489 113.203 90.2756V91.0213C113.203 91.4588 113.28 91.831 113.434 92.1378C113.59 92.4446 113.807 92.679 114.086 92.8409C114.364 93 114.689 93.0795 115.061 93.0795C115.303 93.0795 115.523 93.0455 115.722 92.9773C115.921 92.9062 116.093 92.8011 116.238 92.6619C116.382 92.5227 116.493 92.3509 116.57 92.1463L117.776 92.3636C117.679 92.7187 117.506 93.0298 117.256 93.2969C117.009 93.5611 116.698 93.767 116.323 93.9148C115.951 94.0597 115.526 94.1321 115.049 94.1321ZM122.118 86.4062V85.2727H128.873V86.4062H126.15V94H124.837V86.4062H122.118ZM132.135 94.1321C131.49 94.1321 130.934 93.9943 130.468 93.7188C130.005 93.4403 129.647 93.0497 129.395 92.5469C129.145 92.0412 129.02 91.4489 129.02 90.7699C129.02 90.0994 129.145 89.5085 129.395 88.9972C129.647 88.4858 130 88.0866 130.451 87.7997C130.906 87.5128 131.437 87.3693 132.045 87.3693C132.414 87.3693 132.772 87.4304 133.119 87.5526C133.466 87.6747 133.777 87.8665 134.052 88.1278C134.328 88.3892 134.545 88.7287 134.704 89.1463C134.863 89.5611 134.943 90.0653 134.943 90.6591V91.1108H129.74V90.1562H133.694C133.694 89.821 133.626 89.5241 133.49 89.2656C133.353 89.0043 133.162 88.7983 132.914 88.6477C132.67 88.4972 132.383 88.4219 132.054 88.4219C131.696 88.4219 131.383 88.5099 131.116 88.6861C130.852 88.8594 130.647 89.0866 130.502 89.3679C130.36 89.6463 130.289 89.9489 130.289 90.2756V91.0213C130.289 91.4588 130.366 91.831 130.52 92.1378C130.676 92.4446 130.893 92.679 131.172 92.8409C131.45 93 131.775 93.0795 132.147 93.0795C132.389 93.0795 132.609 93.0455 132.808 92.9773C133.007 92.9062 133.179 92.8011 133.324 92.6619C133.468 92.5227 133.579 92.3509 133.656 92.1463L134.862 92.3636C134.765 92.7187 134.592 93.0298 134.342 93.2969C134.095 93.5611 133.784 93.767 133.409 93.9148C133.037 94.0597 132.612 94.1321 132.135 94.1321ZM141.261 89.0526L140.107 89.2571C140.058 89.1094 139.982 88.9687 139.876 88.8352C139.774 88.7017 139.635 88.5923 139.459 88.5071C139.283 88.4219 139.063 88.3793 138.798 88.3793C138.438 88.3793 138.136 88.4602 137.895 88.6222C137.653 88.7812 137.533 88.9872 137.533 89.2401C137.533 89.4588 137.614 89.6349 137.776 89.7685C137.938 89.902 138.199 90.0114 138.56 90.0966L139.599 90.3352C140.202 90.4744 140.651 90.6889 140.946 90.9787C141.241 91.2685 141.389 91.6449 141.389 92.108C141.389 92.5 141.276 92.8494 141.048 93.1562C140.824 93.4602 140.51 93.6989 140.107 93.8722C139.706 94.0455 139.241 94.1321 138.713 94.1321C137.98 94.1321 137.382 93.9759 136.919 93.6634C136.456 93.348 136.172 92.9006 136.067 92.321L137.298 92.1335C137.375 92.4545 137.533 92.6974 137.771 92.8622C138.01 93.0241 138.321 93.1051 138.705 93.1051C139.122 93.1051 139.456 93.0185 139.706 92.8452C139.956 92.669 140.081 92.4545 140.081 92.2017C140.081 91.9972 140.004 91.8253 139.851 91.6861C139.7 91.5469 139.469 91.4418 139.156 91.3707L138.048 91.1278C137.438 90.9886 136.986 90.767 136.693 90.4631C136.403 90.1591 136.259 89.7741 136.259 89.3082C136.259 88.9219 136.366 88.5838 136.582 88.294C136.798 88.0043 137.097 87.7784 137.477 87.6165C137.858 87.4517 138.294 87.3693 138.786 87.3693C139.493 87.3693 140.05 87.5227 140.456 87.8295C140.862 88.1335 141.131 88.5412 141.261 89.0526ZM145.846 87.4545V88.4773H142.27V87.4545H145.846ZM143.229 85.8864H144.503V92.0781C144.503 92.3253 144.54 92.5114 144.614 92.6364C144.688 92.7585 144.783 92.8423 144.9 92.8878C145.019 92.9304 145.148 92.9517 145.287 92.9517C145.39 92.9517 145.479 92.9446 145.556 92.9304C145.632 92.9162 145.692 92.9048 145.735 92.8963L145.965 93.9489C145.891 93.9773 145.786 94.0057 145.65 94.0341C145.513 94.0653 145.343 94.0824 145.138 94.0852C144.803 94.0909 144.49 94.0312 144.201 93.9062C143.911 93.7812 143.676 93.5881 143.498 93.3267C143.319 93.0653 143.229 92.7372 143.229 92.3423V85.8864ZM147.255 94V87.4545H148.529V94H147.255ZM147.898 86.4446C147.677 86.4446 147.487 86.3707 147.327 86.223C147.171 86.0724 147.093 85.8935 147.093 85.6861C147.093 85.4759 147.171 85.2969 147.327 85.1491C147.487 84.9986 147.677 84.9233 147.898 84.9233C148.12 84.9233 148.309 84.9986 148.465 85.1491C148.624 85.2969 148.704 85.4759 148.704 85.6861C148.704 85.8935 148.624 86.0724 148.465 86.223C148.309 86.3707 148.12 86.4446 147.898 86.4446ZM151.517 90.1136V94H150.243V87.4545H151.466V88.5199H151.547C151.698 88.1733 151.934 87.8949 152.255 87.6847C152.578 87.4744 152.986 87.3693 153.478 87.3693C153.924 87.3693 154.314 87.4631 154.65 87.6506C154.985 87.8352 155.245 88.1108 155.429 88.4773C155.614 88.8437 155.706 89.2969 155.706 89.8366V94H154.432V89.9901C154.432 89.5156 154.309 89.1449 154.061 88.8778C153.814 88.608 153.475 88.473 153.043 88.473C152.748 88.473 152.485 88.5369 152.255 88.6648C152.027 88.7926 151.847 88.9801 151.713 89.2273C151.583 89.4716 151.517 89.767 151.517 90.1136ZM160.159 96.5909C159.64 96.5909 159.192 96.5227 158.817 96.3864C158.445 96.25 158.141 96.0696 157.905 95.8452C157.669 95.6207 157.493 95.375 157.377 95.108L158.472 94.6562C158.549 94.7812 158.651 94.9134 158.779 95.0526C158.909 95.1946 159.086 95.3153 159.307 95.4148C159.532 95.5142 159.82 95.5639 160.172 95.5639C160.655 95.5639 161.054 95.446 161.37 95.2102C161.685 94.9773 161.843 94.6051 161.843 94.0938V92.8068H161.762C161.685 92.946 161.574 93.1009 161.429 93.2713C161.287 93.4418 161.091 93.5895 160.841 93.7145C160.591 93.8395 160.266 93.902 159.865 93.902C159.348 93.902 158.882 93.7812 158.468 93.5398C158.056 93.2955 157.729 92.9361 157.488 92.4616C157.249 91.9844 157.13 91.3977 157.13 90.7017C157.13 90.0057 157.248 89.4091 157.483 88.9119C157.722 88.4148 158.049 88.0341 158.463 87.7699C158.878 87.5028 159.348 87.3693 159.874 87.3693C160.28 87.3693 160.608 87.4375 160.858 87.5739C161.108 87.7074 161.303 87.8636 161.442 88.0426C161.584 88.2216 161.694 88.3793 161.77 88.5156H161.864V87.4545H163.113V94.1449C163.113 94.7074 162.982 95.169 162.721 95.5298C162.459 95.8906 162.105 96.1577 161.659 96.331C161.216 96.5043 160.716 96.5909 160.159 96.5909ZM160.147 92.8452C160.513 92.8452 160.823 92.7599 161.076 92.5895C161.331 92.4162 161.525 92.169 161.655 91.848C161.789 91.5241 161.855 91.1364 161.855 90.6847C161.855 90.2443 161.79 89.8565 161.659 89.5213C161.529 89.1861 161.337 88.9247 161.084 88.7372C160.831 88.5469 160.519 88.4517 160.147 88.4517C159.763 88.4517 159.444 88.5511 159.188 88.75C158.932 88.946 158.739 89.2131 158.608 89.5511C158.48 89.8892 158.417 90.267 158.417 90.6847C158.417 91.1136 158.482 91.4901 158.613 91.8139C158.743 92.1378 158.936 92.3906 159.192 92.5724C159.451 92.7543 159.769 92.8452 160.147 92.8452Z" fill="white"/>
</g>
<g filter="url(#filter1_i_1208_793)">
<path d="M0 173.5C0 164.94 6.93959 158 15.5 158H102.5C111.06 158 118 164.94 118 173.5C118 182.06 111.06 189 102.5 189H15.5C6.93959 189 0 182.06 0 173.5Z" fill="#9A59BA" fill-opacity="0.5"/>
<path d="M0.5 173.5C0.5 165.216 7.21573 158.5 15.5 158.5H102.5C110.784 158.5 117.5 165.216 117.5 173.5C117.5 181.784 110.784 188.5 102.5 188.5H15.5C7.21573 188.5 0.5 181.784 0.5 173.5Z" stroke="#9A59BA"/>
<path d="M17.0144 169.273H18.3354V175.013C18.3354 175.624 18.1919 176.165 17.905 176.636C17.6181 177.105 17.2147 177.474 16.6948 177.744C16.1749 178.011 15.5655 178.145 14.8667 178.145C14.1706 178.145 13.5627 178.011 13.0428 177.744C12.5229 177.474 12.1195 177.105 11.8326 176.636C11.5456 176.165 11.4022 175.624 11.4022 175.013V169.273H12.7189V174.906C12.7189 175.301 12.8056 175.652 12.9789 175.959C13.155 176.266 13.4036 176.507 13.7246 176.683C14.0456 176.857 14.4263 176.943 14.8667 176.943C15.3098 176.943 15.6919 176.857 16.013 176.683C16.3368 176.507 16.584 176.266 16.7544 175.959C16.9277 175.652 17.0144 175.301 17.0144 174.906V169.273ZM21.5666 169.273V178H20.2498V169.273H21.5666ZM27.9767 169.273V178H26.66V169.273H27.9767ZM29.7921 178V171.455H31.0151V172.52H31.0961C31.2324 172.159 31.4554 171.878 31.7651 171.676C32.0748 171.472 32.4455 171.369 32.8773 171.369C33.3148 171.369 33.6813 171.472 33.9767 171.676C34.275 171.881 34.4952 172.162 34.6373 172.52H34.7054C34.8617 172.17 35.1103 171.892 35.4512 171.685C35.7921 171.474 36.1983 171.369 36.6699 171.369C37.2637 171.369 37.748 171.555 38.123 171.928C38.5009 172.3 38.6898 172.861 38.6898 173.611V178H37.4157V173.73C37.4157 173.287 37.2949 172.966 37.0534 172.767C36.812 172.568 36.5236 172.469 36.1884 172.469C35.7736 172.469 35.4512 172.597 35.2211 172.852C34.9909 173.105 34.8759 173.43 34.8759 173.828V178H33.606V173.649C33.606 173.294 33.4952 173.009 33.2736 172.793C33.052 172.577 32.7637 172.469 32.4086 172.469C32.1671 172.469 31.9441 172.533 31.7395 172.661C31.5378 172.786 31.3745 172.96 31.2495 173.185C31.1273 173.409 31.0662 173.669 31.0662 173.964V178H29.7921ZM40.3975 180.455V171.455H41.6419V172.516H41.7484C41.8223 172.379 41.9288 172.222 42.068 172.043C42.2072 171.864 42.4004 171.707 42.6475 171.574C42.8947 171.438 43.2214 171.369 43.6277 171.369C44.1561 171.369 44.6277 171.503 45.0424 171.77C45.4572 172.037 45.7825 172.422 46.0183 172.925C46.2569 173.428 46.3762 174.033 46.3762 174.74C46.3762 175.447 46.2583 176.054 46.0226 176.56C45.7868 177.062 45.4629 177.45 45.051 177.723C44.639 177.993 44.1689 178.128 43.6404 178.128C43.2427 178.128 42.9174 178.061 42.6646 177.928C42.4146 177.794 42.2186 177.638 42.0765 177.459C41.9345 177.28 41.8251 177.121 41.7484 176.982H41.6717V180.455H40.3975ZM41.6461 174.727C41.6461 175.187 41.7129 175.591 41.8464 175.938C41.9799 176.284 42.1731 176.555 42.426 176.751C42.6788 176.945 42.9885 177.041 43.3549 177.041C43.7356 177.041 44.0538 176.94 44.3095 176.739C44.5652 176.534 44.7583 176.257 44.889 175.908C45.0225 175.558 45.0893 175.165 45.0893 174.727C45.0893 174.295 45.024 173.908 44.8933 173.564C44.7654 173.22 44.5723 172.949 44.3137 172.75C44.0581 172.551 43.7385 172.452 43.3549 172.452C42.9856 172.452 42.6731 172.547 42.4174 172.737C42.1646 172.928 41.9728 173.193 41.8422 173.534C41.7115 173.875 41.6461 174.273 41.6461 174.727ZM47.8038 178V171.455H49.0353V172.494H49.1035C49.2228 172.142 49.4331 171.865 49.7342 171.663C50.0382 171.459 50.3819 171.357 50.7654 171.357C50.845 171.357 50.9387 171.359 51.0467 171.365C51.1575 171.371 51.2441 171.378 51.3066 171.386V172.605C51.2555 172.591 51.1646 172.575 51.0339 172.558C50.9032 172.538 50.7725 172.528 50.6419 172.528C50.3407 172.528 50.0723 172.592 49.8365 172.72C49.6035 172.845 49.4189 173.02 49.2825 173.244C49.1461 173.466 49.0779 173.719 49.0779 174.003V178H47.8038ZM54.932 178.132C54.3184 178.132 53.7828 177.991 53.3255 177.71C52.8681 177.429 52.513 177.036 52.2601 176.53C52.0073 176.024 51.8809 175.433 51.8809 174.757C51.8809 174.078 52.0073 173.484 52.2601 172.976C52.513 172.467 52.8681 172.072 53.3255 171.791C53.7828 171.51 54.3184 171.369 54.932 171.369C55.5456 171.369 56.0811 171.51 56.5385 171.791C56.9959 172.072 57.351 172.467 57.6039 172.976C57.8567 173.484 57.9831 174.078 57.9831 174.757C57.9831 175.433 57.8567 176.024 57.6039 176.53C57.351 177.036 56.9959 177.429 56.5385 177.71C56.0811 177.991 55.5456 178.132 54.932 178.132ZM54.9363 177.062C55.334 177.062 55.6635 176.957 55.9249 176.747C56.1863 176.537 56.3794 176.257 56.5044 175.908C56.6323 175.558 56.6962 175.173 56.6962 174.753C56.6962 174.335 56.6323 173.952 56.5044 173.602C56.3794 173.25 56.1863 172.967 55.9249 172.754C55.6635 172.541 55.334 172.435 54.9363 172.435C54.5357 172.435 54.2033 172.541 53.9391 172.754C53.6777 172.967 53.4831 173.25 53.3553 173.602C53.2303 173.952 53.1678 174.335 53.1678 174.753C53.1678 175.173 53.2303 175.558 53.3553 175.908C53.4831 176.257 53.6777 176.537 53.9391 176.747C54.2033 176.957 54.5357 177.062 54.9363 177.062ZM64.7821 171.455L62.4086 178H61.0449L58.6671 171.455H60.035L61.6926 176.491H61.7608L63.4142 171.455H64.7821ZM68.5779 178.132C67.9331 178.132 67.3777 177.994 66.9118 177.719C66.4487 177.44 66.0907 177.05 65.8379 176.547C65.5879 176.041 65.4629 175.449 65.4629 174.77C65.4629 174.099 65.5879 173.509 65.8379 172.997C66.0907 172.486 66.443 172.087 66.8947 171.8C67.3493 171.513 67.8805 171.369 68.4885 171.369C68.8578 171.369 69.2157 171.43 69.5623 171.553C69.9089 171.675 70.22 171.866 70.4956 172.128C70.7711 172.389 70.9885 172.729 71.1476 173.146C71.3066 173.561 71.3862 174.065 71.3862 174.659V175.111H66.1831V174.156H70.1376C70.1376 173.821 70.0694 173.524 69.9331 173.266C69.7967 173.004 69.6049 172.798 69.3578 172.648C69.1135 172.497 68.8265 172.422 68.497 172.422C68.139 172.422 67.8265 172.51 67.5595 172.686C67.2953 172.859 67.0907 173.087 66.9458 173.368C66.8038 173.646 66.7328 173.949 66.7328 174.276V175.021C66.7328 175.459 66.8095 175.831 66.9629 176.138C67.1191 176.445 67.3365 176.679 67.6149 176.841C67.8933 177 68.2186 177.08 68.5907 177.08C68.8322 177.08 69.0524 177.045 69.2512 176.977C69.4501 176.906 69.622 176.801 69.7669 176.662C69.9118 176.523 70.0225 176.351 70.0993 176.146L71.3052 176.364C71.2086 176.719 71.0353 177.03 70.7853 177.297C70.5382 177.561 70.2271 177.767 69.8521 177.915C69.4799 178.06 69.0552 178.132 68.5779 178.132ZM72.7999 178V171.455H74.0229V172.52H74.1039C74.2402 172.159 74.4632 171.878 74.7729 171.676C75.0826 171.472 75.4533 171.369 75.8851 171.369C76.3226 171.369 76.6891 171.472 76.9846 171.676C77.2828 171.881 77.503 172.162 77.6451 172.52H77.7132C77.8695 172.17 78.1181 171.892 78.459 171.685C78.7999 171.474 79.2061 171.369 79.6777 171.369C80.2715 171.369 80.7559 171.555 81.1309 171.928C81.5087 172.3 81.6976 172.861 81.6976 173.611V178H80.4235V173.73C80.4235 173.287 80.3027 172.966 80.0613 172.767C79.8198 172.568 79.5314 172.469 79.1962 172.469C78.7814 172.469 78.459 172.597 78.2289 172.852C77.9988 173.105 77.8837 173.43 77.8837 173.828V178H76.6138V173.649C76.6138 173.294 76.503 173.009 76.2814 172.793C76.0598 172.577 75.7715 172.469 75.4164 172.469C75.1749 172.469 74.9519 172.533 74.7473 172.661C74.5456 172.786 74.3823 172.96 74.2573 173.185C74.1351 173.409 74.074 173.669 74.074 173.964V178H72.7999ZM86.2264 178.132C85.5815 178.132 85.0261 177.994 84.5602 177.719C84.0971 177.44 83.7392 177.05 83.4863 176.547C83.2363 176.041 83.1113 175.449 83.1113 174.77C83.1113 174.099 83.2363 173.509 83.4863 172.997C83.7392 172.486 84.0914 172.087 84.5431 171.8C84.9977 171.513 85.5289 171.369 86.1369 171.369C86.5062 171.369 86.8642 171.43 87.2108 171.553C87.5574 171.675 87.8684 171.866 88.144 172.128C88.4196 172.389 88.6369 172.729 88.796 173.146C88.9551 173.561 89.0346 174.065 89.0346 174.659V175.111H83.8315V174.156H87.786C87.786 173.821 87.7179 173.524 87.5815 173.266C87.4451 173.004 87.2534 172.798 87.0062 172.648C86.7619 172.497 86.475 172.422 86.1454 172.422C85.7875 172.422 85.475 172.51 85.2079 172.686C84.9437 172.859 84.7392 173.087 84.5943 173.368C84.4522 173.646 84.3812 173.949 84.3812 174.276V175.021C84.3812 175.459 84.4579 175.831 84.6113 176.138C84.7676 176.445 84.9849 176.679 85.2633 176.841C85.5417 177 85.867 177.08 86.2392 177.08C86.4806 177.08 86.7008 177.045 86.8997 176.977C87.0985 176.906 87.2704 176.801 87.4153 176.662C87.5602 176.523 87.671 176.351 87.7477 176.146L88.9537 176.364C88.8571 176.719 88.6838 177.03 88.4338 177.297C88.1866 177.561 87.8755 177.767 87.5005 177.915C87.1284 178.06 86.7037 178.132 86.2264 178.132ZM91.7225 174.114V178H90.4483V171.455H91.6713V172.52H91.7523C91.9029 172.173 92.1387 171.895 92.4597 171.685C92.7836 171.474 93.1912 171.369 93.6827 171.369C94.1287 171.369 94.5194 171.463 94.8546 171.651C95.1898 171.835 95.4498 172.111 95.6344 172.477C95.8191 172.844 95.9114 173.297 95.9114 173.837V178H94.6373V173.99C94.6373 173.516 94.5137 173.145 94.2665 172.878C94.0194 172.608 93.6799 172.473 93.248 172.473C92.9526 172.473 92.6898 172.537 92.4597 172.665C92.2324 172.793 92.052 172.98 91.9185 173.227C91.7878 173.472 91.7225 173.767 91.7225 174.114ZM100.676 171.455V172.477H97.1003V171.455H100.676ZM98.0591 169.886H99.3333V176.078C99.3333 176.325 99.3702 176.511 99.4441 176.636C99.5179 176.759 99.6131 176.842 99.7296 176.888C99.8489 176.93 99.9782 176.952 100.117 176.952C100.22 176.952 100.309 176.945 100.386 176.93C100.463 176.916 100.522 176.905 100.565 176.896L100.795 177.949C100.721 177.977 100.616 178.006 100.48 178.034C100.343 178.065 100.173 178.082 99.9682 178.085C99.633 178.091 99.3205 178.031 99.0307 177.906C98.7409 177.781 98.5066 177.588 98.3276 177.327C98.1486 177.065 98.0591 176.737 98.0591 176.342V169.886ZM106.884 173.053L105.73 173.257C105.681 173.109 105.605 172.969 105.499 172.835C105.397 172.702 105.258 172.592 105.082 172.507C104.906 172.422 104.686 172.379 104.421 172.379C104.061 172.379 103.759 172.46 103.518 172.622C103.276 172.781 103.156 172.987 103.156 173.24C103.156 173.459 103.237 173.635 103.399 173.768C103.561 173.902 103.822 174.011 104.183 174.097L105.222 174.335C105.825 174.474 106.274 174.689 106.569 174.979C106.865 175.268 107.012 175.645 107.012 176.108C107.012 176.5 106.899 176.849 106.671 177.156C106.447 177.46 106.133 177.699 105.73 177.872C105.329 178.045 104.865 178.132 104.336 178.132C103.603 178.132 103.005 177.976 102.542 177.663C102.079 177.348 101.795 176.901 101.69 176.321L102.921 176.134C102.998 176.455 103.156 176.697 103.394 176.862C103.633 177.024 103.944 177.105 104.328 177.105C104.745 177.105 105.079 177.018 105.329 176.845C105.579 176.669 105.704 176.455 105.704 176.202C105.704 175.997 105.627 175.825 105.474 175.686C105.323 175.547 105.092 175.442 104.779 175.371L103.671 175.128C103.061 174.989 102.609 174.767 102.316 174.463C102.026 174.159 101.882 173.774 101.882 173.308C101.882 172.922 101.99 172.584 102.205 172.294C102.421 172.004 102.72 171.778 103.1 171.616C103.481 171.452 103.917 171.369 104.409 171.369C105.116 171.369 105.673 171.523 106.079 171.83C106.485 172.134 106.754 172.541 106.884 173.053Z" fill="white"/>
</g>
<g filter="url(#filter2_i_1208_793)">
<path d="M10 15.5C10 6.93959 16.9396 0 25.5 0H74.5C83.0604 0 90 6.93959 90 15.5C90 24.0604 83.0604 31 74.5 31H25.5C16.9396 31 10 24.0604 10 15.5Z" fill="#9A59BA" fill-opacity="0.5"/>
<path d="M10.5 15.5C10.5 7.21573 17.2157 0.5 25.5 0.5H74.5C82.7843 0.5 89.5 7.21573 89.5 15.5C89.5 23.7843 82.7843 30.5 74.5 30.5H25.5C17.2157 30.5 10.5 23.7843 10.5 15.5Z" stroke="#9A59BA"/>
<path d="M21.076 20V11.2727H24.272C24.8913 11.2727 25.4041 11.375 25.8104 11.5795C26.2166 11.7812 26.5206 12.0554 26.7223 12.402C26.924 12.7457 27.0249 13.1335 27.0249 13.5653C27.0249 13.929 26.9581 14.2358 26.8246 14.4858C26.6911 14.733 26.5121 14.9318 26.2876 15.0824C26.0661 15.2301 25.8217 15.3381 25.5547 15.4062V15.4915C25.8445 15.5057 26.1271 15.5994 26.4027 15.7727C26.6811 15.9432 26.9112 16.1861 27.093 16.5014C27.2749 16.8168 27.3658 17.2003 27.3658 17.652C27.3658 18.098 27.2607 18.4986 27.0504 18.8537C26.843 19.206 26.522 19.4858 26.0874 19.6932C25.6527 19.8977 25.0973 20 24.4212 20H21.076ZM22.3928 18.8707H24.2933C24.924 18.8707 25.3757 18.7486 25.6484 18.5043C25.9212 18.2599 26.0575 17.9545 26.0575 17.5881C26.0575 17.3125 25.9879 17.0597 25.8487 16.8295C25.7095 16.5994 25.5107 16.4162 25.2521 16.2798C24.9964 16.1435 24.6925 16.0753 24.3402 16.0753H22.3928V18.8707ZM22.3928 15.0483H24.157C24.4524 15.0483 24.718 14.9915 24.9538 14.8778C25.1925 14.7642 25.3814 14.6051 25.5206 14.4006C25.6626 14.1932 25.7337 13.9489 25.7337 13.6676C25.7337 13.3068 25.6072 13.0043 25.3544 12.7599C25.1016 12.5156 24.7138 12.3935 24.1911 12.3935H22.3928V15.0483ZM32.9716 17.2855V13.4545H34.25V20H32.9972V18.8665H32.929C32.7784 19.2159 32.5369 19.5071 32.2045 19.7401C31.875 19.9702 31.4645 20.0852 30.973 20.0852C30.5526 20.0852 30.1804 19.9929 29.8565 19.8082C29.5355 19.6207 29.2827 19.3438 29.098 18.9773C28.9162 18.6108 28.8253 18.1577 28.8253 17.6179V13.4545H30.0994V17.4645C30.0994 17.9105 30.223 18.2656 30.4702 18.5298C30.7173 18.794 31.0384 18.9261 31.4332 18.9261C31.6719 18.9261 31.9091 18.8665 32.1449 18.7472C32.3835 18.6278 32.581 18.4474 32.7372 18.206C32.8963 17.9645 32.9744 17.6577 32.9716 17.2855ZM38.7063 22.5909C38.1864 22.5909 37.739 22.5227 37.364 22.3864C36.9918 22.25 36.6879 22.0696 36.4521 21.8452C36.2163 21.6207 36.0401 21.375 35.9237 21.108L37.0188 20.6562C37.0955 20.7812 37.1978 20.9134 37.3256 21.0526C37.4563 21.1946 37.6325 21.3153 37.854 21.4148C38.0785 21.5142 38.3668 21.5639 38.7191 21.5639C39.2021 21.5639 39.6012 21.446 39.9165 21.2102C40.2319 20.9773 40.3896 20.6051 40.3896 20.0938V18.8068H40.3086C40.2319 18.946 40.1211 19.1009 39.9762 19.2713C39.8342 19.4418 39.6381 19.5895 39.3881 19.7145C39.1381 19.8395 38.8129 19.902 38.4123 19.902C37.8952 19.902 37.4293 19.7812 37.0146 19.5398C36.6026 19.2955 36.2759 18.9361 36.0344 18.4616C35.7958 17.9844 35.6765 17.3977 35.6765 16.7017C35.6765 16.0057 35.7944 15.4091 36.0302 14.9119C36.2688 14.4148 36.5955 14.0341 37.0103 13.7699C37.4251 13.5028 37.8952 13.3693 38.4208 13.3693C38.8271 13.3693 39.1552 13.4375 39.4052 13.5739C39.6552 13.7074 39.8498 13.8636 39.989 14.0426C40.131 14.2216 40.2404 14.3793 40.3171 14.5156H40.4109V13.4545H41.6594V20.1449C41.6594 20.7074 41.5288 21.169 41.2674 21.5298C41.006 21.8906 40.6523 22.1577 40.2063 22.331C39.7631 22.5043 39.2631 22.5909 38.7063 22.5909ZM38.6935 18.8452C39.06 18.8452 39.3697 18.7599 39.6225 18.5895C39.8782 18.4162 40.0714 18.169 40.2021 17.848C40.3356 17.5241 40.4023 17.1364 40.4023 16.6847C40.4023 16.2443 40.337 15.8565 40.2063 15.5213C40.0756 15.1861 39.8839 14.9247 39.631 14.7372C39.3782 14.5469 39.0657 14.4517 38.6935 14.4517C38.31 14.4517 37.9904 14.5511 37.7347 14.75C37.479 14.946 37.2859 15.2131 37.1552 15.5511C37.0273 15.8892 36.9634 16.267 36.9634 16.6847C36.9634 17.1136 37.0288 17.4901 37.1594 17.8139C37.2901 18.1378 37.4833 18.3906 37.739 18.5724C37.9975 18.7543 38.3157 18.8452 38.6935 18.8452ZM46.6463 20V11.2727H52.0582V12.4062H47.9631V15.0653H51.6705V16.1946H47.9631V20H46.6463ZM53.5753 20V13.4545H54.8494V20H53.5753ZM54.2188 12.4446C53.9972 12.4446 53.8068 12.3707 53.6477 12.223C53.4915 12.0724 53.4134 11.8935 53.4134 11.6861C53.4134 11.4759 53.4915 11.2969 53.6477 11.1491C53.8068 10.9986 53.9972 10.9233 54.2188 10.9233C54.4403 10.9233 54.6293 10.9986 54.7855 11.1491C54.9446 11.2969 55.0241 11.4759 55.0241 11.6861C55.0241 11.8935 54.9446 12.0724 54.7855 12.223C54.6293 12.3707 54.4403 12.4446 54.2188 12.4446ZM57.5692 13.4545L59.0138 16.0028L60.4712 13.4545H61.8647L59.8235 16.7273L61.8817 20H60.4883L59.0138 17.554L57.5437 20H56.146L58.1829 16.7273L56.1715 13.4545H57.5692ZM63.1729 20V13.4545H64.4471V20H63.1729ZM63.8164 12.4446C63.5948 12.4446 63.4045 12.3707 63.2454 12.223C63.0891 12.0724 63.011 11.8935 63.011 11.6861C63.011 11.4759 63.0891 11.2969 63.2454 11.1491C63.4045 10.9986 63.5948 10.9233 63.8164 10.9233C64.038 10.9233 64.2269 10.9986 64.3832 11.1491C64.5423 11.2969 64.6218 11.4759 64.6218 11.6861C64.6218 11.8935 64.5423 12.0724 64.3832 12.223C64.2269 12.3707 64.038 12.4446 63.8164 12.4446ZM67.4354 16.1136V20H66.1612V13.4545H67.3842V14.5199H67.4652C67.6158 14.1733 67.8516 13.8949 68.1726 13.6847C68.4964 13.4744 68.9041 13.3693 69.3956 13.3693C69.8416 13.3693 70.2322 13.4631 70.5675 13.6506C70.9027 13.8352 71.1626 14.1108 71.3473 14.4773C71.532 14.8437 71.6243 15.2969 71.6243 15.8366V20H70.3501V15.9901C70.3501 15.5156 70.2266 15.1449 69.9794 14.8778C69.7322 14.608 69.3928 14.473 68.9609 14.473C68.6655 14.473 68.4027 14.5369 68.1726 14.6648C67.9453 14.7926 67.7649 14.9801 67.6314 15.2273C67.5007 15.4716 67.4354 15.767 67.4354 16.1136ZM76.0774 22.5909C75.5575 22.5909 75.1101 22.5227 74.7351 22.3864C74.3629 22.25 74.0589 22.0696 73.8232 21.8452C73.5874 21.6207 73.4112 21.375 73.2947 21.108L74.3899 20.6562C74.4666 20.7812 74.5689 20.9134 74.6967 21.0526C74.8274 21.1946 75.0036 21.3153 75.2251 21.4148C75.4496 21.5142 75.7379 21.5639 76.0902 21.5639C76.5732 21.5639 76.9723 21.446 77.2876 21.2102C77.603 20.9773 77.7607 20.6051 77.7607 20.0938V18.8068H77.6797C77.603 18.946 77.4922 19.1009 77.3473 19.2713C77.2053 19.4418 77.0092 19.5895 76.7592 19.7145C76.5092 19.8395 76.1839 19.902 75.7834 19.902C75.2663 19.902 74.8004 19.7812 74.3857 19.5398C73.9737 19.2955 73.647 18.9361 73.4055 18.4616C73.1669 17.9844 73.0476 17.3977 73.0476 16.7017C73.0476 16.0057 73.1655 15.4091 73.4013 14.9119C73.6399 14.4148 73.9666 14.0341 74.3814 13.7699C74.7962 13.5028 75.2663 13.3693 75.7919 13.3693C76.1982 13.3693 76.5263 13.4375 76.7763 13.5739C77.0263 13.7074 77.2209 13.8636 77.3601 14.0426C77.5021 14.2216 77.6115 14.3793 77.6882 14.5156H77.782V13.4545H79.0305V20.1449C79.0305 20.7074 78.8999 21.169 78.6385 21.5298C78.3771 21.8906 78.0234 22.1577 77.5774 22.331C77.1342 22.5043 76.6342 22.5909 76.0774 22.5909ZM76.0646 18.8452C76.4311 18.8452 76.7408 18.7599 76.9936 18.5895C77.2493 18.4162 77.4425 18.169 77.5732 17.848C77.7067 17.5241 77.7734 17.1364 77.7734 16.6847C77.7734 16.2443 77.7081 15.8565 77.5774 15.5213C77.4467 15.1861 77.255 14.9247 77.0021 14.7372C76.7493 14.5469 76.4368 14.4517 76.0646 14.4517C75.6811 14.4517 75.3615 14.5511 75.1058 14.75C74.8501 14.946 74.657 15.2131 74.5263 15.5511C74.3984 15.8892 74.3345 16.267 74.3345 16.6847C74.3345 17.1136 74.3999 17.4901 74.5305 17.8139C74.6612 18.1378 74.8544 18.3906 75.1101 18.5724C75.3686 18.7543 75.6868 18.8452 76.0646 18.8452Z" fill="white"/>
</g>
<defs>
<filter id="filter0_i_1208_793" x="85" y="72" width="89" height="33" filterUnits="userSpaceOnUse" color-interpolation-filters="sRGB">
<feFlood flood-opacity="0" result="BackgroundImageFix"/>
<feBlend mode="normal" in="SourceGraphic" in2="BackgroundImageFix" result="shape"/>
<feColorMatrix in="SourceAlpha" type="matrix" values="0 0 0 0 0 0 0 0 0 0 0 0 0 0 0 0 0 0 127 0" result="hardAlpha"/>
<feOffset dy="-2"/>
<feGaussianBlur stdDeviation="1"/>
<feComposite in2="hardAlpha" operator="arithmetic" k2="-1" k3="1"/>
<feColorMatrix type="matrix" values="0 0 0 0 1 0 0 0 0 1 0 0 0 0 1 0 0 0 0.25 0"/>
<feBlend mode="normal" in2="shape" result="effect1_innerShadow_1208_793"/>
</filter>
<filter id="filter1_i_1208_793" x="0" y="156" width="118" height="33" filterUnits="userSpaceOnUse" color-interpolation-filters="sRGB">
<feFlood flood-opacity="0" result="BackgroundImageFix"/>
<feBlend mode="normal" in="SourceGraphic" in2="BackgroundImageFix" result="shape"/>
<feColorMatrix in="SourceAlpha" type="matrix" values="0 0 0 0 0 0 0 0 0 0 0 0 0 0 0 0 0 0 127 0" result="hardAlpha"/>
<feOffset dy="-2"/>
<feGaussianBlur stdDeviation="1"/>
<feComposite in2="hardAlpha" operator="arithmetic" k2="-1" k3="1"/>
<feColorMatrix type="matrix" values="0 0 0 0 1 0 0 0 0 1 0 0 0 0 1 0 0 0 0.25 0"/>
<feBlend mode="normal" in2="shape" result="effect1_innerShadow_1208_793"/>
</filter>
<filter id="filter2_i_1208_793" x="10" y="-2" width="80" height="33" filterUnits="userSpaceOnUse" color-interpolation-filters="sRGB">
<feFlood flood-opacity="0" result="BackgroundImageFix"/>
<feBlend mode="normal" in="SourceGraphic" in2="BackgroundImageFix" result="shape"/>
<feColorMatrix in="SourceAlpha" type="matrix" values="0 0 0 0 0 0 0 0 0 0 0 0 0 0 0 0 0 0 127 0" result="hardAlpha"/>
<feOffset dy="-2"/>
<feGaussianBlur stdDeviation="1"/>
<feComposite in2="hardAlpha" operator="arithmetic" k2="-1" k3="1"/>
<feColorMatrix type="matrix" values="0 0 0 0 1 0 0 0 0 1 0 0 0 0 1 0 0 0 0.25 0"/>
<feBlend mode="normal" in2="shape" result="effect1_innerShadow_1208_793"/>
</filter>
</defs>
</svg>
