<?xml version="1.0" encoding="UTF-8"?>
<svg version="1.1" xmlns="http://www.w3.org/2000/svg" width="144" height="145">
<path d="M0 0 C15.19819781 11.97877214 25.55781819 27.63615927 28.96484375 46.86328125 C30.42169509 67.70931677 28.00789497 87.70696771 14.24609375 104.26171875 C11.61169335 107.26557219 8.828317 110.07766678 5.96484375 112.86328125 C5.35898438 113.4665625 4.753125 114.06984375 4.12890625 114.69140625 C-9.25128317 127.09255742 -27.72803151 132.28154403 -45.62890625 132.078125 C-66.34192267 130.77168474 -84.04390932 122.31711108 -98.26953125 107.14453125 C-112.60422556 90.85779466 -116.18415596 70.80961881 -115.26904297 49.81738281 C-113.83815319 31.74455788 -103.98117413 16.0467006 -91.03515625 3.86328125 C-87.85538647 1.20933923 -84.59996681 -1.03245273 -81.03515625 -3.13671875 C-79.68357422 -3.93529297 -79.68357422 -3.93529297 -78.3046875 -4.75 C-53.50735043 -18.23627104 -23.02934316 -16.21242048 0 0 Z " fill="#B9E7C1" transform="translate(115.03515625,13.13671875)"/>
<path d="M0 0 C15.19819781 11.97877214 25.55781819 27.63615927 28.96484375 46.86328125 C30.42169509 67.70931677 28.00789497 87.70696771 14.24609375 104.26171875 C11.61169335 107.26557219 8.828317 110.07766678 5.96484375 112.86328125 C5.35898438 113.4665625 4.753125 114.06984375 4.12890625 114.69140625 C-9.25128317 127.09255742 -27.72803151 132.28154403 -45.62890625 132.078125 C-66.34192267 130.77168474 -84.04390932 122.31711108 -98.26953125 107.14453125 C-112.60422556 90.85779466 -116.18415596 70.80961881 -115.26904297 49.81738281 C-113.83815319 31.74455788 -103.98117413 16.0467006 -91.03515625 3.86328125 C-87.85538647 1.20933923 -84.59996681 -1.03245273 -81.03515625 -3.13671875 C-79.68357422 -3.93529297 -79.68357422 -3.93529297 -78.3046875 -4.75 C-53.50735043 -18.23627104 -23.02934316 -16.21242048 0 0 Z M-93.28515625 18.55078125 C-104.63985603 33.63597788 -108.89793238 50.61573392 -106.75390625 69.31640625 C-106.32069009 71.56579786 -105.72495391 73.67832008 -105.03515625 75.86328125 C-104.71675781 76.94222656 -104.39835937 78.02117187 -104.0703125 79.1328125 C-98.8253089 95.43294153 -88.12205571 107.48820954 -73.4609375 116.13671875 C-68.18153053 118.7974917 -62.75646177 120.43899 -57.03515625 121.86328125 C-56.09929688 122.1247998 -56.09929688 122.1247998 -55.14453125 122.39160156 C-43.53165888 124.98836886 -29.83008734 123.49175305 -19.03515625 118.86328125 C-18.03484375 118.46238281 -17.03453125 118.06148438 -16.00390625 117.6484375 C0.29038941 110.40419523 11.60800414 96.21769587 17.96484375 79.86328125 C23.3732405 64.39038679 22.24004391 46.84976641 15.56640625 31.94140625 C7.2980053 16.04994296 -5.06940868 4.05625709 -22.14453125 -1.86865234 C-48.49586132 -9.9291299 -75.23030483 -2.59422743 -93.28515625 18.55078125 Z " fill="#08201F" transform="translate(115.03515625,13.13671875)"/>
<path d="M0 0 C4.7237191 3.67513491 7.25692774 8.22622496 9 13.91015625 C9 14.90015625 9 15.89015625 9 16.91015625 C9.66 16.91015625 10.32 16.91015625 11 16.91015625 C11.04125 16.10578125 11.0825 15.30140625 11.125 14.47265625 C12.67032708 8.18096741 16.44184586 2.37869901 22 -1.08984375 C26.37312713 -2.30701631 30.62389593 -2.32062302 35 -1.08984375 C33.60652624 2.06220606 31.97514921 4.17187398 29.5234375 6.58203125 C28.853125 7.24589844 28.1828125 7.90976562 27.4921875 8.59375 C26.79351562 9.27566406 26.09484375 9.95757812 25.375 10.66015625 C24.66859375 11.35753906 23.9621875 12.05492187 23.234375 12.7734375 C21.49401297 14.49028113 19.74915019 16.20227457 18 17.91015625 C19.21429688 17.42417969 20.42859375 16.93820313 21.6796875 16.4375 C26.56925673 14.61063981 30.81531798 14.1359336 36 14.91015625 C41.37781276 17.4994735 42.50191532 19.66302923 46 24.91015625 C33.625 25.40515625 33.625 25.40515625 21 25.91015625 C24.3 27.56015625 27.6 29.21015625 31 30.91015625 C35.25238442 35.36997405 36.12707557 37.96505261 36.0625 44.03515625 C36.05347656 45.13085938 36.04445312 46.2265625 36.03515625 47.35546875 C36.02355469 48.19851562 36.01195312 49.0415625 36 49.91015625 C32.33247995 48.37097615 30.01419427 46.15530173 27.234375 43.33984375 C26.34492187 42.44394531 25.45546875 41.54804687 24.5390625 40.625 C23.61867187 39.68785156 22.69828125 38.75070313 21.75 37.78515625 C20.80515144 36.83026988 19.85984367 35.87583766 18.9140625 34.921875 C16.60485347 32.58910261 14.30183079 30.25020932 12 27.91015625 C11.67 35.50015625 11.34 43.09015625 11 50.91015625 C12.65 51.24015625 14.3 51.57015625 16 51.91015625 C18.3125 53.78515625 18.3125 53.78515625 20 55.91015625 C20 56.90015625 20 57.89015625 20 58.91015625 C24.95 58.91015625 29.9 58.91015625 35 58.91015625 C35 59.57015625 35 60.23015625 35 60.91015625 C18.5 60.91015625 2 60.91015625 -15 60.91015625 C-15 60.25015625 -15 59.59015625 -15 58.91015625 C-10.05 58.91015625 -5.1 58.91015625 0 58.91015625 C0.33 57.59015625 0.66 56.27015625 1 54.91015625 C5.22222222 50.91015625 5.22222222 50.91015625 9 50.91015625 C8.67 43.32015625 8.34 35.73015625 8 27.91015625 C6.43507812 29.49828125 4.87015625 31.08640625 3.2578125 32.72265625 C1.74322774 34.25282651 0.22692794 35.78127733 -1.28955078 37.30957031 C-2.34474509 38.37483885 -3.39813964 39.44189322 -4.44970703 40.51074219 C-5.95919727 42.04441841 -7.47498699 43.57161193 -8.9921875 45.09765625 C-9.90339355 46.01933594 -10.81459961 46.94101563 -11.75341797 47.890625 C-14 49.91015625 -14 49.91015625 -16 49.91015625 C-16.61670236 39.32343248 -16.61670236 39.32343248 -14.5 34.47265625 C-10.60309162 30.47832516 -6.29822375 27.67623083 -1 25.91015625 C-9.25 25.58015625 -17.5 25.25015625 -26 24.91015625 C-20.90909091 17.27379261 -20.90909091 17.27379261 -16 14.91015625 C-9.22182035 13.89797842 -4.2464154 15.41026389 2 17.91015625 C1.59160889 17.50176514 1.18321777 17.09337402 0.76245117 16.67260742 C-3.49169922 12.41845703 -7.74584961 8.16430664 -12 3.91015625 C-12.84630981 3.12572144 -12.84630981 3.12572144 -13.7097168 2.32543945 C-15 0.91015625 -15 0.91015625 -15 -1.08984375 C-9.88477557 -2.57937863 -4.76770033 -2.5980242 0 0 Z " fill="#0E2423" transform="translate(62,38.08984375)"/>
<path d="M0 0 C6.40396688 2.4004907 13.01279556 5.29988102 17 11 C17.61006186 15.28722023 17.46977257 19.49355338 17.3125 23.8125 C17.28994141 24.98232422 17.26738281 26.15214844 17.24414062 27.35742188 C17.18532091 30.23958769 17.10317141 33.11913681 17 36 C17.77730469 36.12632813 18.55460937 36.25265625 19.35546875 36.3828125 C22.66006872 37.15404853 23.91048976 38.36876488 26 41 C26 41.99 26 42.98 26 44 C30.95 44 35.9 44 41 44 C41 44.66 41 45.32 41 46 C24.5 46 8 46 -9 46 C-9 45.34 -9 44.68 -9 44 C-4.05 44 0.9 44 6 44 C6.33 42.68 6.66 41.36 7 40 C11.22222222 36 11.22222222 36 15 36 C14.67 28.41 14.34 20.82 14 13 C12.43507812 14.588125 10.87015625 16.17625 9.2578125 17.8125 C7.74322774 19.34267026 6.22692794 20.87112108 4.71044922 22.39941406 C3.65525491 23.4646826 2.60186036 24.53173697 1.55029297 25.60058594 C0.04080273 27.13426216 -1.47498699 28.66145568 -2.9921875 30.1875 C-4.35899658 31.57001953 -4.35899658 31.57001953 -5.75341797 32.98046875 C-8 35 -8 35 -10 35 C-10.61670236 24.41327623 -10.61670236 24.41327623 -8.5 19.5625 C-4.60309162 15.56816891 -0.29822375 12.76607458 5 11 C-3.25 10.67 -11.5 10.34 -20 10 C-14.47962833 1.7194425 -9.9420534 -1.84936098 0 0 Z " fill="#0D2322" transform="translate(56,53)"/>
<path d="M0 0 C0.66 0 1.32 0 2 0 C2 8.25 2 16.5 2 25 C3.65 25.33 5.3 25.66 7 26 C9.3125 27.875 9.3125 27.875 11 30 C11 30.99 11 31.98 11 33 C15.95 33 20.9 33 26 33 C26 33.66 26 34.32 26 35 C9.5 35 -7 35 -24 35 C-24 34.34 -24 33.68 -24 33 C-19.05 33 -14.1 33 -9 33 C-8.67 31.68 -8.34 30.36 -8 29 C-3.77777778 25 -3.77777778 25 0 25 C0 16.75 0 8.5 0 0 Z " fill="#061616" transform="translate(71,64)"/>
<path d="M0 0 C5.96248829 2.25136586 11.46937749 4.49462253 15 10 C11.97354845 11.51322577 8.89228139 11.00453618 5.5859375 10.87890625 C4.85629791 10.85529526 4.12665833 10.83168427 3.37490845 10.80735779 C1.04140861 10.73070246 -1.29176089 10.64668657 -3.625 10.5625 C-5.20571293 10.50928115 -6.78644205 10.45654074 -8.3671875 10.40429688 C-12.24500138 10.27508487 -16.12253486 10.13927041 -20 10 C-14.76419377 1.86779033 -9.79685534 -1.83093252 0 0 Z " fill="#061A1A" transform="translate(56,53)"/>
<path d="M0 0 C2.625 2.375 2.625 2.375 6.625 8.375 C-3.605 8.375 -13.835 8.375 -24.375 8.375 C-24.705 7.715 -25.035 7.055 -25.375 6.375 C-18.63540925 -1.18151084 -9.45057568 -4.55027718 0 0 Z " fill="#061A1A" transform="translate(101.375,54.625)"/>
<path d="M0 0 C0.66 0 1.32 0 2 0 C2.33 1.98 2.66 3.96 3 6 C3.99 4.68 4.98 3.36 6 2 C6.66 2.33 7.32 2.66 8 3 C7.649375 3.61875 7.29875 4.2375 6.9375 4.875 C6.4734375 5.926875 6.4734375 5.926875 6 7 C6.33 7.66 6.66 8.32 7 9 C5.02 9.99 5.02 9.99 3 11 C1.68 10.01 0.36 9.02 -1 8 C-0.67 7.34 -0.34 6.68 0 6 C0.039992 4.00039988 0.04346799 1.99952758 0 0 Z " fill="#304B43" transform="translate(71,55)"/>
</svg>
